<?xml version="1.0" standalone="no"?>
<!DOCTYPE svg PUBLIC "-//W3C//DTD SVG 20010904//EN"
 "http://www.w3.org/TR/2001/REC-SVG-20010904/DTD/svg10.dtd">
<svg version="1.0" xmlns="http://www.w3.org/2000/svg"
 width="512.000000pt" height="512.000000pt" viewBox="0 0 512.000000 512.000000"
 preserveAspectRatio="xMidYMid meet">

<g transform="translate(0.000000,512.000000) scale(0.100000,-0.100000)"
fill="#000000" stroke="none">
<path d="M1403 5108 c-11 -14 -13 -47 -4 -46 24 2 32 -4 27 -19 -6 -14 -3 -14
15 3 11 10 24 18 27 17 10 -4 9 30 -2 45 -4 6 -19 12 -31 12 -12 0 -27 -6 -32
-12z"/>
<path d="M2005 5110 c-3 -5 -3 -10 1 -10 4 0 -1 -10 -12 -22 -10 -12 -14 -19
-8 -15 6 3 16 -4 21 -16 8 -18 18 -22 49 -22 36 1 38 3 39 36 1 19 -2 40 -8
47 -11 14 -73 16 -82 2z"/>
<path d="M2323 5106 c0 -8 11 -12 31 -11 45 4 46 4 46 15 0 6 -17 10 -38 10
-26 0 -39 -5 -39 -14z"/>
<path d="M2420 5109 c0 -5 5 -7 11 -3 8 5 8 1 0 -14 -8 -15 -8 -23 0 -27 6 -4
8 -14 5 -22 -3 -8 -1 -11 5 -8 5 4 17 1 26 -7 9 -7 14 -8 11 -3 -3 6 4 19 15
30 l20 20 -12 -22 c-8 -17 -8 -23 1 -29 7 -4 10 -4 6 1 -4 4 -3 16 2 26 7 12
6 20 -1 24 -6 4 -8 13 -5 20 3 9 -3 12 -19 10 -14 -1 -22 2 -19 6 3 5 -6 9
-20 9 -14 0 -26 -5 -26 -11z"/>
<path d="M2646 5112 c-2 -4 4 -8 14 -8 10 0 16 4 14 8 -3 4 -9 8 -14 8 -5 0
-11 -4 -14 -8z"/>
<path d="M3492 5108 c5 -14 47 -18 55 -5 3 6 1 7 -5 3 -7 -4 -12 -2 -12 3 0 6
-9 11 -21 11 -11 0 -19 -5 -17 -12z"/>
<path d="M3856 5112 c-2 -4 4 -8 14 -8 10 0 16 4 14 8 -3 4 -9 8 -14 8 -5 0
-11 -4 -14 -8z"/>
<path d="M3949 5115 c-6 -25 0 -50 10 -47 7 1 19 -2 26 -8 10 -9 21 -4 47 20
18 18 27 29 21 25 -7 -3 -13 -1 -13 4 0 11 -89 16 -91 6z"/>
<path d="M7 5093 c-12 -11 -8 -63 5 -63 6 0 8 3 5 6 -3 4 -2 16 4 27 9 15 8
18 -2 12 -9 -6 -11 -3 -6 8 7 18 5 21 -6 10z"/>
<path d="M3333 5062 c7 -10 13 -10 15 -3 2 6 9 8 14 5 6 -4 8 -2 4 4 -3 6 -15
10 -26 9 -15 -1 -17 -4 -7 -15z"/>
<path d="M3395 5070 c-6 -10 1 -45 8 -42 4 1 12 2 18 2 5 0 7 5 4 10 -4 6 -2
16 4 23 7 9 5 13 -10 13 -11 0 -22 -3 -24 -6z"/>
<path d="M3569 5078 c-1 -2 -2 -14 -3 -28 -2 -32 -15 -52 -28 -44 -6 4 -8 3
-5 -3 9 -15 52 -8 52 8 1 8 7 13 13 11 10 -2 10 3 2 18 -6 11 -15 20 -21 20
-6 0 -7 5 -4 10 3 6 4 10 1 10 -3 0 -6 -1 -7 -2z"/>
<path d="M2640 5045 c-7 -8 -11 -15 -9 -16 31 -7 46 -3 44 10 -3 21 -20 24
-35 6z"/>
<path d="M1666 5032 c-3 -5 1 -9 9 -9 8 0 12 4 9 9 -3 4 -7 8 -9 8 -2 0 -6 -4
-9 -8z"/>
<path d="M2102 5017 l-22 -24 22 2 c14 1 22 9 23 23 2 27 3 27 -23 -1z"/>
<path d="M2576 5013 c-4 -4 -15 -8 -24 -8 -9 0 -16 -6 -14 -14 1 -7 -1 -18 -6
-25 -10 -11 -10 -85 0 -76 7 7 39 -21 33 -29 -5 -10 27 -7 43 3 7 4 20 2 29
-6 10 -7 14 -8 10 -1 -4 6 -1 18 7 26 8 8 12 18 8 22 -4 4 5 0 20 -9 14 -9 29
-13 32 -8 8 14 -4 22 -22 15 -12 -5 -14 -2 -9 11 5 11 3 15 -5 10 -7 -4 -8 -3
-4 5 4 6 2 19 -6 28 -11 14 -11 16 2 8 8 -5 3 4 -12 19 -27 27 -69 42 -82 29z"/>
<path d="M1971 4991 c-13 -23 7 -45 29 -31 8 5 19 6 25 3 5 -4 -1 6 -14 20
-29 32 -28 32 -40 8z"/>
<path d="M3874 4989 c-3 -6 -2 -15 3 -20 5 -5 9 -1 9 11 0 23 -2 24 -12 9z"/>
<path d="M1126 4971 c-3 -4 4 -7 14 -6 27 2 33 10 10 12 -11 1 -22 -2 -24 -6z"/>
<path d="M1208 4969 c-6 -4 -17 -5 -23 -2 -5 3 -4 0 3 -8 15 -16 16 -33 0 -23
-7 5 -8 3 -4 -5 5 -7 10 -10 13 -7 3 3 14 1 25 -5 25 -13 45 2 43 33 -2 22
-33 32 -57 17z"/>
<path d="M1566 4962 c-3 -5 1 -9 9 -9 8 0 12 4 9 9 -3 4 -7 8 -9 8 -2 0 -6 -4
-9 -8z"/>
<path d="M70 4900 c-8 -5 -17 -7 -20 -5 -3 2 -5 -13 -5 -33 1 -32 5 -36 26
-36 21 0 24 4 25 37 1 42 -5 50 -26 37z"/>
<path d="M3184 4890 c0 -11 5 -21 11 -21 16 -1 17 17 2 30 -12 9 -14 7 -13 -9z"/>
<path d="M4639 4903 c-1 -2 -2 -9 -3 -15 0 -7 -6 -13 -12 -13 -7 0 -24 -12
-39 -27 l-27 -28 26 -10 c17 -6 24 -14 20 -22 -4 -7 -3 -8 5 -4 6 4 9 11 6 16
-3 4 2 13 9 19 20 17 32 -5 14 -27 -11 -15 -11 -15 2 -6 8 6 24 11 35 11 11 0
27 -5 35 -11 13 -10 13 -9 1 7 -7 9 -9 17 -4 17 5 0 18 7 29 16 19 15 19 15
-1 5 -19 -8 -20 -6 -20 32 0 40 -1 41 -38 42 -20 0 -38 -1 -38 -2z"/>
<path d="M4843 4895 c0 -8 4 -12 9 -9 5 3 6 10 3 15 -9 13 -12 11 -12 -6z"/>
<path d="M5047 4897 c4 -6 0 -8 -11 -4 -10 4 -15 3 -11 -4 4 -5 2 -15 -3 -22
-16 -21 -7 -73 18 -98 12 -13 19 -18 15 -10 -6 11 -3 11 14 -2 38 -26 48 -13
50 69 1 40 -2 75 -6 75 -44 6 -71 5 -66 -4z"/>
<path d="M255 4889 c-4 -5 -12 -8 -18 -6 -7 2 -18 -2 -25 -10 -8 -7 -17 -11
-21 -9 -10 6 -8 -25 3 -42 4 -7 3 -18 -2 -25 -16 -19 47 -15 86 6 33 18 33 19
17 44 -10 14 -12 22 -4 18 8 -5 10 -4 5 3 -4 7 -14 12 -22 12 -8 0 -12 5 -9
10 3 6 4 10 1 10 -3 0 -8 -5 -11 -11z"/>
<path d="M666 4886 c6 -15 -6 -21 -31 -16 -5 1 -4 -4 3 -11 6 -7 12 -17 12
-22 0 -4 -6 -5 -12 -1 -7 4 -3 -4 10 -18 12 -13 20 -27 17 -30 -9 -9 30 -5 43
5 8 6 18 5 30 -4 14 -11 15 -11 5 1 -14 16 -17 34 -5 26 5 -3 8 8 8 24 0 17
-2 28 -4 25 -8 -7 -30 20 -24 30 3 6 -2 4 -11 -4 -14 -11 -20 -11 -32 -1 -13
11 -14 10 -9 -4z"/>
<path d="M1875 4889 c6 -8 -20 -31 -27 -24 -2 3 -4 -3 -3 -13 1 -23 35 -57 56
-57 22 0 50 25 43 37 -3 5 0 17 7 26 7 9 9 14 4 9 -4 -4 -17 1 -27 10 -18 16
-61 27 -53 12z"/>
<path d="M3710 4886 c7 -7 14 -6 21 1 9 9 7 12 -9 10 -14 -1 -18 -5 -12 -11z"/>
<path d="M4083 4887 c-3 -5 -11 -6 -18 -3 -7 2 -16 -2 -19 -10 -4 -10 -2 -13
7 -8 6 4 2 -4 -11 -18 -12 -13 -19 -27 -16 -31 4 -4 1 -14 -7 -24 -8 -9 -9
-14 -2 -10 11 7 28 -9 28 -27 0 -12 67 -16 81 -4 7 5 18 7 25 6 8 -2 13 13 15
50 2 48 0 54 -21 64 -14 6 -23 14 -20 17 2 4 -5 7 -16 7 -11 0 -23 -4 -26 -9z"/>
<path d="M3083 4867 c-14 -20 -9 -52 7 -48 8 2 20 4 25 4 6 0 12 9 12 19 2 23
-31 43 -44 25z"/>
<path d="M4404 4868 c-17 -27 -11 -44 16 -44 28 0 36 20 17 44 -12 15 -24 15
-33 0z"/>
<path d="M1367 4853 c3 -7 9 -13 13 -13 4 0 10 6 13 13 3 7 -3 13 -13 13 -10
0 -16 -6 -13 -13z"/>
<path d="M3499 4866 c0 -1 -2 -11 -3 -24 l-3 -22 22 20 c12 11 25 18 28 15 4
-3 5 -2 2 2 -4 5 -42 13 -46 9z"/>
<path d="M3566 4858 c3 -5 10 -6 15 -3 13 9 11 12 -6 12 -8 0 -12 -4 -9 -9z"/>
<path d="M3606 4861 c-3 -4 4 -7 14 -8 11 -1 22 2 24 6 3 4 -4 7 -14 8 -11 1
-22 -2 -24 -6z"/>
<path d="M4845 4860 c-10 -16 17 -23 31 -8 12 12 11 14 -6 15 -11 1 -22 -2
-25 -7z"/>
<path d="M1044 4828 c-6 -9 -4 -10 26 -11 11 -1 19 3 18 8 -4 12 -37 14 -44 3z"/>
<path d="M1497 4834 c-3 -3 -3 -12 -1 -19 3 -7 1 -16 -5 -20 -16 -9 4 -42 30
-50 14 -5 18 -10 11 -17 -6 -6 -8 -17 -5 -25 5 -11 9 -11 24 3 15 14 17 19 7
26 -10 7 -10 10 3 18 9 5 15 18 14 28 -2 25 -41 67 -50 53 -3 -6 -11 -11 -16
-11 -6 0 -7 5 -4 10 7 11 2 14 -8 4z"/>
<path d="M2306 4811 c-14 -26 -14 -30 5 -47 11 -10 17 -24 14 -31 -3 -8 0 -11
6 -8 6 4 8 13 5 21 -3 8 0 11 9 8 18 -7 40 38 31 62 -4 9 -9 14 -13 11 -3 -4
-14 -2 -24 4 -15 8 -21 4 -33 -20z"/>
<path d="M2561 4827 c-16 -16 -14 -44 4 -51 23 -8 43 3 40 22 -2 9 -4 20 -4
23 -2 13 -29 17 -40 6z"/>
<path d="M2760 4836 c0 -2 7 -7 16 -10 8 -3 12 -2 9 4 -6 10 -25 14 -25 6z"/>
<path d="M1397 4805 c-3 -17 1 -21 17 -20 13 1 21 9 22 21 1 27 -33 26 -39 -1z"/>
<path d="M3154 4808 c1 -17 8 -23 24 -24 l23 -1 -22 23 c-27 29 -27 29 -25 2z"/>
<path d="M3295 4822 c2 -3 0 -12 -5 -21 -5 -10 -5 -23 1 -32 5 -7 9 -10 9 -6
0 4 10 3 21 -4 15 -8 19 -8 15 0 -9 14 6 14 22 1 9 -7 9 -7 2 2 -13 15 -13 31
-1 23 5 -3 13 0 17 6 4 7 3 9 -4 5 -6 -3 -18 1 -27 11 -10 9 -26 18 -36 18
-11 1 -17 0 -14 -3z"/>
<path d="M3635 4801 c-3 -5 -2 -12 3 -15 5 -3 9 1 9 9 0 17 -3 19 -12 6z"/>
<path d="M3876 4792 c-3 -5 1 -9 9 -9 8 0 12 4 9 9 -3 4 -7 8 -9 8 -2 0 -6 -4
-9 -8z"/>
<path d="M4455 4792 c3 -3 -2 -13 -10 -22 -14 -15 -13 -19 5 -35 23 -21 56
-27 58 -11 9 67 8 70 -26 72 -18 1 -30 -1 -27 -4z"/>
<path d="M2380 4776 c0 -2 8 -10 18 -17 15 -13 16 -12 3 4 -13 16 -21 21 -21
13z"/>
<path d="M324 4759 c-8 -14 13 -18 30 -6 16 12 16 13 -4 13 -12 0 -23 -4 -26
-7z"/>
<path d="M499 4765 c-7 -32 -1 -49 19 -50 l22 -2 -20 19 c-11 11 -18 23 -15
29 4 5 4 9 1 9 -3 0 -6 -2 -7 -5z"/>
<path d="M2083 4757 c0 -7 -2 -18 -4 -26 -3 -10 4 -14 19 -14 34 1 35 2 22 18
-7 8 -17 12 -23 8 -5 -3 -7 -1 -3 5 3 6 3 13 -2 16 -5 3 -9 0 -9 -7z"/>
<path d="M2776 4761 c-7 -10 -1 -39 9 -48 4 -4 5 -3 1 4 -3 7 2 14 12 17 10 4
19 12 19 19 0 14 -34 21 -41 8z"/>
<path d="M3943 4753 c0 -9 4 -10 14 -2 7 6 13 12 13 14 0 1 -6 2 -13 2 -8 0
-14 -6 -14 -14z"/>
<path d="M4282 4747 c-12 -13 -20 -27 -17 -30 3 -4 2 -5 -1 -2 -10 7 -38 -26
-39 -47 -1 -10 2 -21 7 -24 4 -3 8 -10 8 -15 0 -6 -5 -7 -12 -3 -7 4 -8 3 -4
-5 4 -6 15 -10 23 -9 9 2 18 -4 20 -12 4 -13 3 -13 -7 0 -10 13 -11 13 -7 0 2
-8 10 -14 17 -12 7 1 19 -3 28 -10 9 -7 13 -8 10 -3 -4 6 2 11 12 11 10 0 16
-6 13 -13 -5 -12 -16 -17 -34 -15 -11 1 -2 -39 13 -58 9 -10 15 -20 12 -22 -2
-3 10 -4 26 -4 17 0 30 4 30 9 0 5 8 3 18 -4 15 -13 16 -12 3 4 -11 14 -11 20
0 34 10 11 10 14 2 9 -16 -9 -17 6 -2 21 8 8 6 11 -7 10 -13 -1 -19 4 -18 16
2 15 -1 16 -15 5 -9 -7 -5 0 8 14 13 15 27 26 30 24 3 -2 6 15 7 39 0 24 -3
42 -8 39 -12 -8 -9 10 5 26 10 12 9 12 -6 1 -15 -12 -21 -11 -42 9 -13 13 -22
27 -18 33 3 6 1 7 -6 3 -6 -4 -9 -11 -7 -15 3 -3 -4 -7 -14 -7 -14 0 -16 3 -8
13 18 22 3 14 -20 -10z"/>
<path d="M4535 4760 c4 -6 11 -8 16 -5 14 9 11 15 -7 15 -8 0 -12 -5 -9 -10z"/>
<path d="M4900 4752 c0 -12 3 -12 15 -2 8 7 15 13 15 15 0 1 -7 2 -15 2 -8 0
-15 -7 -15 -15z"/>
<path d="M2149 4759 c-7 -21 -4 -47 4 -42 6 4 8 0 4 -10 -3 -9 -1 -19 5 -23 7
-5 8 -2 3 6 -5 8 -3 11 6 8 8 -3 15 -10 15 -16 1 -7 2 -16 3 -20 0 -4 10 -8
21 -8 26 0 26 27 0 49 -12 10 -18 23 -14 30 4 6 3 9 -1 4 -5 -4 -17 0 -27 10
-10 9 -19 14 -19 12z"/>
<path d="M2843 4716 c-4 -5 -1 -6 5 -2 16 10 15 -7 0 -23 -11 -11 -10 -12 0
-7 7 4 18 3 25 -3 16 -13 40 2 42 26 1 14 -6 18 -33 18 -19 0 -36 -4 -39 -9z"/>
<path d="M3189 4727 c0 -1 -2 -12 -3 -24 -2 -18 0 -20 10 -12 7 6 17 8 21 6 5
-3 9 2 9 12 0 9 -8 18 -18 18 -10 1 -18 1 -19 0z"/>
<path d="M3600 4710 c-6 -11 -9 -20 -8 -21 21 -6 50 -3 55 5 3 6 3 8 -1 4 -10
-8 -36 14 -29 25 2 4 2 7 -1 7 -3 0 -10 -9 -16 -20z"/>
<path d="M1186 4692 c-3 -2 -2 -11 1 -19 4 -10 0 -13 -12 -11 -29 5 -28 -36 2
-63 14 -13 23 -18 19 -11 -5 8 0 12 14 12 14 0 19 -4 14 -12 -4 -7 5 -2 19 11
15 14 27 25 27 26 0 1 -11 1 -25 0 -29 -4 -32 3 -9 20 13 9 14 16 7 30 -10 17
-47 28 -57 17z"/>
<path d="M3886 4692 c-2 -4 4 -8 14 -8 10 0 16 4 14 8 -3 4 -9 8 -14 8 -5 0
-11 -4 -14 -8z"/>
<path d="M4566 4692 c-7 -12 -1 -47 9 -47 11 0 14 44 4 51 -4 2 -10 1 -13 -4z"/>
<path d="M229 4667 c-6 -13 -3 -45 3 -41 5 3 14 1 21 -4 9 -8 12 -3 12 17 1
19 -5 27 -17 28 -10 1 -18 1 -19 0z"/>
<path d="M1083 4655 c0 -10 8 -15 21 -13 12 2 21 8 21 13 0 6 -9 11 -21 13
-13 2 -21 -3 -21 -13z"/>
<path d="M3843 4655 c0 -10 8 -15 21 -13 12 2 21 8 21 13 0 6 -9 11 -21 13
-13 2 -21 -3 -21 -13z"/>
<path d="M4015 4660 c3 -5 8 -10 11 -10 2 0 4 5 4 10 0 6 -5 10 -11 10 -5 0
-7 -4 -4 -10z"/>
<path d="M865 4650 c-4 -7 -1 -18 7 -26 13 -13 15 -12 13 5 -2 26 -11 36 -20
21z"/>
<path d="M1775 4630 c-7 -11 -8 -11 22 -14 18 -2 20 0 12 11 -14 16 -26 17
-34 3z"/>
<path d="M3558 4633 c6 -2 9 -10 6 -15 -4 -7 -2 -8 5 -4 13 9 5 26 -12 25 -9
0 -8 -2 1 -6z"/>
<path d="M565 4599 c-1 -15 3 -25 7 -23 12 8 10 -10 -3 -23 -8 -8 -6 -11 7
-10 13 1 19 -4 18 -16 -2 -14 1 -15 12 -6 11 9 18 8 31 -2 9 -8 14 -9 11 -4
-3 6 4 19 15 30 11 11 16 14 12 6 -5 -9 -4 -12 2 -8 11 7 10 43 -2 54 -4 5 -5
1 0 -7 6 -12 5 -13 -5 -3 -11 10 -11 15 0 30 12 15 12 16 0 6 -16 -14 -34 -18
-26 -5 3 5 -14 8 -37 8 -39 0 -42 -2 -42 -27z"/>
<path d="M1974 4608 c1 -10 6 -18 11 -18 6 0 10 8 11 18 1 10 -4 19 -11 19 -7
0 -12 -9 -11 -19z"/>
<path d="M2807 4621 c-2 -3 -2 -21 -2 -40 0 -28 4 -35 23 -36 12 -1 31 8 42
20 l20 22 -20 18 c-20 18 -58 28 -63 16z"/>
<path d="M3429 4626 c0 -1 -2 -11 -3 -24 l-3 -22 19 20 c11 11 25 17 31 14 7
-4 9 -3 4 1 -6 7 -44 15 -48 11z"/>
<path d="M3664 4605 c2 -30 51 -28 52 3 1 18 -3 22 -26 20 -20 -2 -27 -7 -26
-23z"/>
<path d="M5040 4620 c0 -5 5 -10 11 -10 5 0 7 5 4 10 -3 6 -8 10 -11 10 -2 0
-4 -4 -4 -10z"/>
<path d="M1116 4592 c-2 -4 4 -9 15 -9 11 -1 17 2 14 8 -7 11 -22 12 -29 1z"/>
<path d="M3294 4592 c8 -14 -23 -44 -37 -35 -7 3 -8 2 -4 -2 4 -5 13 -10 20
-11 22 -4 67 -23 67 -29 0 -4 -5 -3 -12 1 -6 4 -8 3 -5 -3 8 -13 36 -10 66 6
14 8 21 9 17 2 -6 -10 6 -15 27 -12 4 0 7 -4 7 -10 0 -8 4 -9 13 0 8 6 17 9
20 6 4 -3 5 -2 2 2 -3 3 5 17 17 30 17 19 19 23 5 17 -10 -3 -18 -1 -18 5 -1
6 -3 16 -4 21 -1 6 -3 13 -4 16 0 4 -13 -1 -27 -11 -18 -12 -29 -13 -38 -6 -7
6 -16 8 -19 4 -4 -3 -12 -1 -20 5 -7 7 -18 7 -27 2 -8 -5 -22 -4 -33 2 -13 7
-17 7 -13 0z m110 -28 c3 -8 2 -12 -4 -9 -6 3 -10 10 -10 16 0 14 7 11 14 -7z"/>
<path d="M1469 4588 c-5 -9 -5 -48 -1 -43 6 6 11 45 5 45 -2 0 -4 -1 -4 -2z"/>
<path d="M2117 4584 c-10 -11 5 -34 22 -34 10 0 17 8 17 20 0 19 -25 28 -39
14z"/>
<path d="M3085 4580 c5 -8 -23 -70 -31 -70 -3 0 -2 5 2 12 4 7 3 8 -5 4 -9 -6
-9 -11 -1 -21 7 -8 8 -20 4 -27 -4 -7 -4 -10 1 -6 9 9 37 -11 30 -21 -5 -8 10
-11 55 -11 48 0 57 2 58 17 6 41 1 104 -7 99 -10 -6 -30 21 -23 30 4 5 0 3 -9
-4 -9 -6 -18 -9 -22 -6 -8 9 -57 12 -52 4z"/>
<path d="M4424 4578 c-4 -7 -3 -8 4 -4 15 9 16 -6 2 -20 -6 -6 0 -10 20 -9
l29 0 -21 22 c-25 27 -25 27 -34 11z"/>
<path d="M4700 4575 c-9 -11 -10 -19 -3 -26 13 -13 35 12 24 29 -6 10 -11 9
-21 -3z"/>
<path d="M4544 4558 c-17 -27 -11 -44 16 -44 18 0 30 7 37 23 6 13 7 21 2 17
-5 -3 -9 0 -9 5 0 15 -37 14 -46 -1z"/>
<path d="M1422 4536 c2 -12 8 -21 13 -21 6 0 11 9 13 21 2 13 -3 21 -13 21
-10 0 -15 -8 -13 -21z"/>
<path d="M3940 4546 c0 -8 4 -17 9 -20 10 -7 23 19 14 28 -11 11 -23 6 -23 -8z"/>
<path d="M903 4517 c-4 -6 -1 -7 7 -2 9 5 11 4 6 -3 -4 -7 -13 -12 -21 -12 -8
0 -17 -5 -21 -12 -5 -7 -3 -8 6 -3 9 5 8 0 -3 -15 -11 -16 -13 -28 -7 -40 5
-10 6 -21 2 -25 -4 -5 -1 -5 6 -1 14 9 16 -5 2 -22 -7 -9 -7 -9 2 -2 14 12 31
13 24 2 -3 -5 15 -8 39 -8 24 1 41 4 39 7 -7 12 28 69 38 63 7 -5 8 -2 4 5 -5
7 -10 10 -14 7 -8 -9 -33 45 -25 57 3 6 1 7 -5 3 -7 -4 -18 -4 -24 0 -19 12
-48 12 -55 1z"/>
<path d="M1125 4521 c-2 -5 5 -17 17 -27 12 -11 18 -13 14 -6 -4 6 -3 12 2 12
5 0 9 6 9 13 0 14 -34 21 -42 8z"/>
<path d="M1494 4518 c-4 -5 -13 -7 -21 -4 -8 3 -11 1 -8 -4 3 -6 2 -10 -3 -10
-8 0 -8 -29 0 -86 2 -12 27 -12 46 0 6 4 17 4 24 0 7 -4 8 -3 4 4 -4 7 -3 12
2 12 5 0 8 21 7 47 -1 40 -4 47 -24 48 -12 1 -24 -2 -27 -7z"/>
<path d="M2117 4523 c-10 -9 -9 -23 1 -23 5 0 9 7 9 15 0 17 -1 18 -10 8z"/>
<path d="M3971 4520 c-8 -4 -24 -7 -36 -6 -12 2 -22 -2 -23 -8 0 -6 -3 -24 -5
-39 -4 -23 1 -31 19 -39 13 -6 20 -16 17 -22 -4 -6 1 -5 10 2 9 8 22 10 28 6
8 -4 9 -3 5 4 -4 7 -3 12 2 12 10 0 11 84 1 94 -2 3 -11 1 -18 -4z"/>
<path d="M1072 4496 c2 -12 7 -19 13 -16 14 8 13 37 -2 37 -8 0 -13 -9 -11
-21z"/>
<path d="M1251 4511 c-8 -6 -11 -16 -7 -27 6 -16 8 -16 23 -1 20 19 6 41 -16
28z"/>
<path d="M2221 4486 c-8 -9 -7 -18 5 -32 8 -10 13 -13 9 -6 -7 14 6 16 23 2 9
-7 9 -7 2 2 -5 7 -10 16 -10 21 0 4 5 5 10 2 6 -3 10 -4 10 -1 0 3 -9 10 -19
15 -14 8 -22 7 -30 -3z"/>
<path d="M2306 4487 c-19 -14 -19 -15 2 -21 13 -4 19 -12 16 -18 -4 -7 -2 -8
5 -4 6 4 18 2 26 -4 11 -9 19 -10 28 -1 8 6 16 9 19 6 2 -3 4 5 3 17 -2 23
-39 36 -50 17 -5 -6 -11 -4 -19 6 -10 14 -14 14 -30 2z"/>
<path d="M1633 4484 c7 -11 -20 -42 -31 -36 -3 1 -6 -14 -7 -34 0 -29 4 -39
23 -47 17 -8 28 -8 41 0 16 10 18 8 16 -10 -1 -12 -4 -22 -5 -22 -2 0 -6 -52
-9 -134 -1 -26 -4 -32 -17 -27 -13 5 -14 3 -7 -6 9 -10 11 -63 4 -63 -1 0 -4
-22 -7 -50 -2 -27 -8 -51 -13 -53 -5 -2 -7 -12 -4 -22 3 -11 2 -28 -2 -37 -4
-10 -9 -31 -10 -48 -8 -94 -18 -160 -26 -163 -5 -2 -6 -8 -3 -13 3 -6 0 -17
-8 -26 -11 -14 -11 -16 1 -8 10 6 12 4 6 -4 -4 -7 -9 -27 -10 -44 -7 -84 -18
-163 -24 -172 -3 -5 -6 -21 -7 -35 -3 -32 -13 -108 -19 -140 -3 -14 -7 -41
-10 -60 -2 -19 -9 -62 -15 -95 -6 -33 -13 -69 -14 -80 -2 -11 -4 -20 -6 -20
-1 0 -3 -16 -5 -35 -5 -72 -17 -155 -23 -165 -4 -5 -7 -17 -7 -25 0 -8 -7 -14
-17 -12 -37 6 -48 -89 -13 -114 18 -14 18 -14 -1 -29 -14 -12 -15 -14 -2 -9
13 4 15 1 11 -18 -3 -13 -11 -29 -17 -37 -9 -12 -8 -13 3 -6 10 6 12 4 6 -5
-4 -7 -10 -29 -11 -49 -2 -20 -6 -49 -8 -66 -3 -16 -5 -38 -5 -47 -1 -10 -6
-18 -12 -18 -5 0 -8 4 -5 9 10 16 -39 46 -74 46 -26 0 -38 -6 -46 -23 -6 -12
-14 -19 -19 -14 -5 4 -5 1 -1 -5 4 -7 4 -19 0 -25 -12 -19 -12 -48 -1 -55 6
-4 7 -1 2 8 -4 8 1 5 12 -6 11 -11 18 -24 15 -30 -3 -5 1 -4 9 3 17 16 32 16
23 0 -5 -9 -2 -9 9 1 14 11 20 11 32 1 13 -11 14 -10 10 1 -3 8 3 19 13 26 18
10 18 8 10 -45 -16 -114 -19 -123 -31 -115 -8 4 -7 1 1 -10 8 -9 11 -20 8 -25
-5 -8 -10 -45 -22 -147 -3 -27 -9 -54 -12 -60 -8 -13 -11 -46 -18 -205 -4 -85
-10 -138 -17 -142 -9 -5 -8 -8 2 -8 11 0 9 -5 -5 -22 -10 -12 -13 -18 -6 -14
9 5 12 -3 12 -29 0 -26 -3 -34 -12 -29 -10 6 -10 4 -2 -7 6 -8 11 -23 11 -34
0 -11 -5 -26 -11 -34 -8 -11 -8 -13 2 -7 16 9 16 -6 -1 -23 -9 -11 -9 -12 0
-7 9 5 11 2 7 -8 -3 -9 -7 -61 -8 -116 -1 -86 -4 -101 -21 -115 -15 -11 -15
-13 -3 -9 14 5 16 -4 16 -71 0 -80 2 -88 30 -91 79 -9 122 -15 152 -21 19 -3
39 -5 44 -4 4 1 15 -4 24 -11 13 -11 14 -11 7 1 -6 10 -4 12 4 6 7 -4 27 -9
44 -10 132 -12 173 -19 185 -34 8 -9 11 -10 7 -3 -4 8 1 12 15 12 14 0 19 -4
14 -12 -6 -9 -3 -9 9 0 9 8 20 11 25 8 6 -3 38 -9 73 -12 35 -3 73 -10 85 -15
12 -4 25 -5 28 -2 3 3 13 0 23 -8 11 -9 14 -10 9 -1 -7 12 6 17 17 5 4 -3 23
-7 42 -9 74 -5 171 -15 188 -21 24 -6 52 -10 150 -19 63 -6 77 -10 72 -22 -4
-11 -2 -12 7 -5 17 14 49 13 67 -1 12 -9 13 -8 6 3 -6 10 -4 12 4 6 7 -4 27
-9 44 -10 82 -7 163 -18 172 -23 5 -3 28 -7 50 -8 71 -3 129 -14 140 -26 7 -8
6 -9 -5 -3 -13 8 -13 6 -2 -8 8 -9 11 -20 8 -25 -6 -11 34 -46 54 -46 8 0 25
8 37 19 17 14 20 23 12 37 -9 17 -5 23 16 18 6 -1 24 -3 40 -5 122 -10 184
-18 181 -24 -2 -3 15 -6 39 -7 42 0 44 1 51 35 4 20 8 38 9 41 4 11 14 58 25
113 6 31 15 55 18 53 4 -2 7 12 6 32 -1 34 9 85 23 122 3 8 7 26 9 40 8 68 17
105 25 108 5 2 6 8 3 13 -3 6 0 17 8 26 11 14 11 16 -1 8 -10 -6 -12 -4 -6 5
4 6 10 29 12 49 3 20 9 38 14 39 5 2 7 8 3 13 -3 5 -2 15 2 21 5 7 9 19 10 28
1 8 5 40 9 70 3 30 9 62 12 70 3 8 7 33 9 55 2 22 5 65 8 95 3 30 6 74 7 98 2
33 6 42 17 37 11 -4 12 -2 4 7 -5 7 -8 31 -6 53 2 22 6 60 8 85 15 191 19 226
24 235 10 17 9 42 -2 42 -64 3 -152 17 -154 24 -2 5 -8 6 -13 3 -6 -3 -17 0
-26 8 -12 9 -15 9 -9 1 4 -7 3 -13 -1 -13 -5 0 -15 6 -22 13 -11 10 -12 9 -6
-2 6 -10 4 -12 -4 -6 -7 4 -27 8 -44 10 -55 4 -178 20 -187 24 -3 2 -21 4 -40
5 -82 6 -186 19 -195 24 -5 3 -28 7 -50 9 -149 10 -208 21 -198 36 5 8 2 8 -9
-1 -8 -7 -22 -10 -31 -6 -14 5 -60 10 -114 13 -21 1 -22 5 -17 58 3 37 10 61
22 70 13 10 13 12 1 8 -12 -5 -14 1 -11 30 2 19 8 33 12 30 4 -2 6 9 4 25 -4
29 -3 30 41 30 24 0 46 -4 49 -9 3 -4 18 -7 33 -5 15 1 31 0 37 -3 5 -3 34 -8
65 -9 31 -2 65 -6 76 -8 11 -3 33 -5 48 -5 16 -1 26 -4 24 -8 -3 -5 14 -8 36
-9 70 -1 202 -15 207 -22 3 -4 23 -8 45 -9 22 -1 56 -4 75 -6 147 -17 160 -19
153 -30 -5 -8 -2 -8 8 0 10 8 26 10 45 5 16 -4 45 -7 64 -7 30 0 35 4 38 25 1
14 8 45 14 69 6 25 12 54 13 65 2 29 18 30 47 1 21 -21 26 -22 24 -8 0 12 5
17 17 17 14 -2 15 1 6 12 -9 11 -9 18 -1 26 8 8 14 4 21 -16 8 -21 16 -26 38
-24 28 2 56 24 61 47 1 7 -2 9 -9 5 -9 -5 -10 -2 -6 10 4 9 3 15 -2 12 -5 -3
-11 0 -14 7 -4 12 -38 15 -57 6 -3 -1 -26 -2 -51 -3 l-46 -1 2 35 c1 19 5 51
9 70 11 53 14 74 15 88 1 7 4 11 9 9 4 -3 8 14 9 36 1 44 10 92 20 117 3 8 7
26 9 40 8 68 17 105 25 108 5 2 6 8 3 13 -3 6 0 17 8 26 11 14 11 16 -1 8 -10
-6 -12 -4 -7 4 8 13 11 27 21 111 4 30 9 62 12 70 3 8 7 33 8 55 8 124 10 135
25 132 15 -2 24 39 10 48 -5 3 -7 -6 -6 -20 2 -13 -1 -22 -5 -19 -12 7 -12 94
0 94 4 0 7 12 5 27 -1 15 3 34 9 42 10 12 9 13 -2 6 -10 -6 -12 -4 -6 5 8 13
12 58 14 154 1 40 4 47 17 42 14 -5 15 -4 5 8 -7 8 -10 20 -6 26 3 5 -1 13
-10 16 -10 4 -14 13 -11 23 5 13 3 12 -8 -2 -9 -12 -16 -14 -21 -7 -3 5 -11 8
-16 4 -5 -3 -17 0 -26 8 -14 11 -16 11 -9 0 7 -11 4 -12 -10 -5 -11 5 -29 8
-42 7 -28 -2 -38 12 -15 20 14 6 13 9 -7 29 -13 12 -33 21 -44 21 -17 0 -21
-5 -19 -32 2 -35 1 -35 -107 -15 -55 10 -60 10 -147 18 -46 4 -83 12 -83 17 0
5 -5 6 -10 3 -6 -4 -18 -1 -27 7 -12 9 -15 9 -9 1 4 -7 3 -13 -1 -13 -5 0 -15
6 -22 13 -11 10 -12 9 -6 -2 6 -10 4 -12 -4 -7 -7 5 -31 10 -55 11 -23 2 -58
7 -77 10 -52 10 -90 15 -134 20 -125 12 -171 18 -175 24 -3 4 -16 6 -30 5 -14
-1 -31 3 -39 10 -12 9 -13 8 -6 -3 6 -10 4 -12 -4 -6 -7 4 -27 8 -44 10 -146
10 -183 18 -200 38 -16 20 -18 20 -30 6 -11 -15 -21 -15 -87 -5 -41 7 -74 17
-73 22 2 14 -28 14 -44 1 -9 -6 -18 -5 -30 4 -14 12 -16 12 -8 0 5 -10 4 -12
-3 -7 -15 9 -53 18 -72 17 -29 -2 -65 0 -85 3 -11 3 -33 5 -48 5 -19 1 -26 5
-21 13 4 7 3 8 -5 4 -6 -4 -19 -2 -28 6 -14 11 -16 11 -8 -1 6 -10 4 -12 -4
-6 -7 4 -51 8 -97 10 -46 1 -90 8 -98 14 -7 6 -16 8 -20 4 -3 -4 -20 7 -38 23
-17 16 -28 24 -25 18z m1156 -384 c496 -65 906 -121 909 -124 7 -7 -38 -439
-47 -447 -3 -3 -249 27 -546 66 -297 40 -541 71 -543 70 -1 -1 -25 -171 -52
-376 -27 -206 -61 -457 -75 -559 -53 -393 -63 -475 -56 -481 3 -3 256 -39 561
-79 305 -39 556 -73 558 -74 5 -5 -51 -481 -58 -489 -7 -8 -1978 248 -1988
258 -3 3 7 85 22 183 15 97 38 247 51 332 32 204 206 1340 245 1595 42 279 35
256 78 249 20 -3 444 -59 941 -124z"/>
<path d="M3410 4463 c-13 -13 -19 -23 -14 -22 23 4 36 -2 31 -16 -4 -8 -1 -17
5 -21 7 -4 8 -3 4 4 -4 7 2 16 17 21 16 6 23 16 22 32 -2 31 -36 32 -65 2z"/>
<path d="M4499 4488 c-6 -22 -3 -45 6 -45 14 0 17 34 4 42 -5 4 -9 5 -10 3z"/>
<path d="M4872 4471 c-11 -6 -10 -10 0 -19 11 -8 14 -7 14 9 0 10 0 19 -1 19
0 0 -6 -4 -13 -9z"/>
<path d="M3745 4452 c2 -3 0 -12 -5 -22 -7 -13 -4 -23 13 -38 l22 -21 25 27
c13 15 20 24 16 20 -5 -5 -14 2 -20 14 -6 12 -21 22 -33 23 -13 1 -21 0 -18
-3z"/>
<path d="M4669 4456 c-5 -23 -2 -46 5 -48 12 -4 15 41 4 48 -4 3 -8 3 -9 0z"/>
<path d="M2590 4415 c0 -8 7 -15 16 -15 14 0 14 3 4 15 -7 8 -14 15 -16 15 -2
0 -4 -7 -4 -15z"/>
<path d="M4186 4421 c-1 -3 -2 -15 -2 -26 1 -14 8 -20 26 -20 19 0 24 5 24 24
0 18 -5 25 -22 26 -13 1 -24 -1 -26 -4z"/>
<path d="M3537 4407 c3 -4 -1 -15 -9 -24 -9 -12 -10 -15 0 -9 10 6 10 2 0 -19
-9 -21 -9 -31 0 -46 7 -11 10 -25 6 -31 -4 -7 -3 -8 5 -4 6 4 19 2 28 -6 14
-11 16 -11 9 0 -7 11 -4 12 13 3 17 -10 22 -9 27 4 4 10 10 12 18 6 8 -7 12 0
13 22 6 73 3 86 -19 93 -10 3 -16 9 -14 13 3 4 -15 7 -39 7 -24 -1 -41 -5 -38
-9z"/>
<path d="M4743 4398 c-2 -16 1 -18 10 -9 7 7 8 14 1 21 -6 6 -10 2 -11 -12z"/>
<path d="M773 4377 c0 -7 -2 -18 -4 -26 -3 -10 4 -14 19 -14 34 1 35 2 22 18
-7 8 -17 12 -23 8 -5 -3 -7 -1 -3 5 3 6 3 13 -2 16 -5 3 -9 0 -9 -7z"/>
<path d="M1394 4382 c4 -7 2 -19 -4 -27 -9 -11 -10 -19 -1 -28 6 -8 7 -17 3
-21 -4 -5 4 -6 17 -4 33 4 35 41 3 70 -14 13 -22 17 -18 10z"/>
<path d="M2589 4366 c-7 -14 -16 -23 -22 -19 -6 3 -7 2 -4 -4 3 -5 16 -9 29
-8 16 1 23 8 24 24 2 32 -14 36 -27 7z"/>
<path d="M836 4345 c-4 -12 -1 -16 14 -13 24 3 28 22 7 26 -8 2 -17 -4 -21
-13z"/>
<path d="M1267 4320 c-12 -14 -18 -22 -13 -17 5 4 17 0 26 -8 16 -14 19 -14
33 -1 8 8 18 12 23 8 5 -4 2 1 -5 10 -7 9 -10 21 -8 25 13 21 -36 6 -56 -17z"/>
<path d="M1485 4340 c-4 -7 -1 -18 7 -26 13 -13 15 -12 13 5 -2 26 -11 36 -20
21z"/>
<path d="M3012 4341 c2 -24 -4 -32 -19 -27 -10 4 -6 -4 10 -20 23 -23 29 -25
44 -13 14 12 16 12 8 0 -5 -10 -4 -12 4 -7 11 7 8 52 -4 64 -7 8 -44 10 -43 3z"/>
<path d="M1016 4309 c2 -4 13 -7 24 -6 23 2 17 10 -10 12 -10 1 -17 -2 -14 -6z"/>
<path d="M4329 4313 c-1 -5 -1 -12 0 -17 1 -4 -4 -14 -10 -22 -18 -22 17 -57
42 -43 27 14 24 47 -6 61 -13 6 -22 15 -19 19 3 5 3 9 0 9 -3 0 -7 -3 -7 -7z"/>
<path d="M772 4277 c-16 -19 8 -50 34 -45 28 5 26 52 -2 56 -11 2 -26 -3 -32
-11z"/>
<path d="M3964 4259 c-16 -17 -22 -28 -12 -24 9 4 19 2 22 -3 3 -5 16 -7 29
-5 28 6 33 39 8 53 -14 7 -24 3 -47 -21z"/>
<path d="M4159 4285 c-7 -4 -5 -43 2 -52 6 -7 8 -16 6 -20 -13 -20 61 -5 84
17 13 12 19 20 13 17 -11 -7 -41 20 -36 32 1 4 -62 10 -69 6z"/>
<path d="M873 4237 c-3 -6 -1 -7 5 -3 15 9 16 -6 2 -22 -7 -9 -7 -9 2 -2 17
14 31 12 22 -2 -5 -9 -4 -10 4 -3 20 19 17 38 -6 40 -13 1 -26 -3 -29 -8z"/>
<path d="M1210 4239 c0 -5 5 -7 10 -4 6 3 10 8 10 11 0 2 -4 4 -10 4 -5 0 -10
-5 -10 -11z"/>
<path d="M1469 4240 c-1 -3 -1 -9 0 -14 1 -4 -3 -13 -8 -20 -8 -9 -7 -46 1
-101 1 -6 27 -10 59 -10 31 0 55 3 53 7 -2 4 6 17 18 29 13 12 17 19 11 15
-14 -8 -18 10 -5 18 14 8 7 42 -12 62 -13 12 -34 18 -67 18 -27 1 -50 -1 -50
-4z"/>
<path d="M5 4212 c-3 -3 -5 -36 -5 -73 0 -73 3 -77 60 -74 26 1 35 6 33 19 0
11 4 15 13 12 17 -7 25 6 14 24 -5 8 -5 21 0 31 14 24 -32 64 -76 65 -19 0
-36 -2 -39 -4z"/>
<path d="M399 4218 c0 -2 -2 -20 -3 -41 -1 -27 3 -41 15 -47 9 -5 19 -7 22 -4
3 3 11 6 19 8 8 1 25 12 39 24 15 15 18 21 7 17 -12 -5 -17 0 -20 17 -2 19
-10 24 -40 26 -21 2 -38 2 -39 0z"/>
<path d="M765 4187 c-8 -10 -19 -16 -23 -13 -5 3 -8 -8 -8 -25 0 -16 4 -29 9
-29 5 0 5 -6 -1 -13 -8 -9 -3 -12 21 -12 18 0 38 4 46 9 9 6 12 5 8 0 -3 -5 3
-10 14 -10 12 0 15 4 9 10 -12 12 -13 27 -2 24 4 -2 8 2 9 7 0 6 -3 9 -8 8 -5
-2 -9 4 -9 13 0 8 -4 13 -9 10 -5 -4 -8 4 -7 17 3 28 -26 31 -49 4z"/>
<path d="M1298 4198 c9 -9 15 -9 24 0 9 9 7 12 -12 12 -19 0 -21 -3 -12 -12z"/>
<path d="M4055 4186 c1 -14 9 -21 22 -22 24 -1 21 16 -5 33 -16 9 -18 8 -17
-11z"/>
<path d="M4820 4196 c7 -7 13 -7 20 0 6 6 3 10 -10 10 -13 0 -16 -4 -10 -10z"/>
<path d="M1326 4168 c3 -5 10 -6 15 -3 13 9 11 12 -6 12 -8 0 -12 -4 -9 -9z"/>
<path d="M4703 4160 c-1 -11 2 -22 6 -24 4 -3 7 4 6 14 -2 27 -10 33 -12 10z"/>
<path d="M4996 4107 c-20 -15 -29 -56 -15 -73 14 -17 85 -10 80 7 -2 8 -4 19
-4 24 0 6 2 15 4 20 2 6 0 12 -6 13 -5 2 -17 8 -26 13 -10 5 -23 4 -33 -4z"/>
<path d="M1525 4069 c-6 -8 -4 -10 5 -4 9 5 11 4 6 -3 -4 -7 -13 -12 -21 -12
-8 0 -17 -5 -21 -12 -5 -7 -3 -8 7 -3 12 8 12 6 0 -8 -11 -13 -11 -20 -1 -32
6 -8 8 -20 4 -26 -4 -8 -3 -9 4 -5 17 10 15 -4 -3 -24 -16 -18 -12 -20 30 -20
39 0 45 3 33 17 -8 10 -8 17 2 26 7 7 10 7 7 2 -3 -6 2 -11 12 -11 14 0 17 9
17 42 -1 30 -5 41 -16 40 -8 -1 -15 7 -15 16 0 9 -4 20 -9 25 -5 4 -6 3 -2 -4
9 -16 -6 -17 -21 -2 -8 8 -13 7 -18 -2z"/>
<path d="M3919 4073 c-1 -5 -1 -12 0 -17 1 -4 -3 -14 -10 -22 -6 -7 -8 -17 -5
-23 3 -5 -1 -12 -10 -15 -10 -4 -13 -2 -8 7 4 6 3 9 -1 5 -12 -11 -15 -77 -4
-84 5 -3 9 -11 9 -17 0 -7 -4 -6 -11 3 -8 12 -10 12 -7 1 2 -8 14 -15 26 -16
11 -1 18 3 15 8 -3 5 4 4 15 -2 22 -12 39 0 27 19 -3 5 0 7 8 4 8 -3 18 0 23
7 5 8 3 10 -6 4 -8 -5 -11 -3 -8 6 3 8 12 13 19 11 8 -2 11 0 6 4 -4 4 3 19
15 32 13 14 18 22 11 18 -11 -6 -27 24 -28 53 0 15 -43 23 -51 9 -3 -4 -10 -8
-15 -8 -6 0 -7 5 -4 10 3 6 4 10 1 10 -3 0 -7 -3 -7 -7z"/>
<path d="M115 4060 c3 -5 2 -10 -4 -10 -13 0 -5 -40 10 -54 7 -6 9 -6 7 -1 -7
13 17 36 28 27 5 -4 -2 5 -15 21 -24 27 -38 36 -26 17z"/>
<path d="M30 4052 c-8 -4 -16 -13 -18 -20 -2 -10 2 -10 17 -3 10 6 21 7 25 3
4 -3 4 1 0 11 -3 9 -7 17 -8 16 0 0 -8 -3 -16 -7z"/>
<path d="M983 4037 c-8 -13 -12 -50 -5 -42 3 2 13 0 22 -5 19 -10 31 -1 43 32
4 13 2 15 -10 11 -9 -4 -14 -2 -10 3 3 6 -3 10 -13 11 -11 1 -23 -4 -27 -10z"/>
<path d="M245 4029 c-4 -6 -1 -17 7 -25 12 -12 14 -11 15 6 2 23 -13 35 -22
19z"/>
<path d="M669 4005 c-1 -3 -2 -8 -3 -12 -3 -19 -18 -33 -29 -27 -7 4 -1 -4 12
-17 33 -31 64 -31 66 0 1 15 -6 26 -21 33 -13 6 -21 15 -18 19 3 5 3 9 0 9 -3
0 -7 -2 -7 -5z"/>
<path d="M805 4000 c-3 -5 -3 -10 2 -11 4 0 -3 -5 -16 -10 l-25 -10 22 -21
c12 -12 31 -22 42 -23 14 -1 17 2 10 9 -12 12 -13 27 -2 24 4 -2 8 0 10 5 1 4
-1 7 -5 8 -15 2 -33 21 -27 30 3 5 3 9 0 9 -3 0 -8 -4 -11 -10z"/>
<path d="M4185 4000 c-3 -5 -3 -10 2 -11 4 0 -1 -4 -11 -8 -26 -10 -28 -49 -3
-63 15 -8 18 -7 11 4 -6 10 -4 10 10 -1 13 -11 20 -11 28 -3 19 19 17 54 -3
59 -11 3 -17 9 -14 13 3 5 1 11 -4 14 -5 4 -12 2 -16 -4z"/>
<path d="M387 3950 c-10 -12 -23 -18 -29 -14 -7 4 -8 3 -4 -5 4 -6 12 -9 17
-6 5 3 6 -1 3 -9 -3 -9 -11 -13 -18 -9 -6 3 -1 -5 12 -19 12 -13 20 -27 17
-29 -3 -3 10 -5 28 -4 20 1 32 7 32 16 0 8 6 14 13 14 6 0 12 5 11 10 -1 6 -5
9 -10 8 -13 -4 -11 11 2 24 8 8 6 11 -7 10 -13 -1 -18 4 -17 17 1 13 -2 15
-10 7 -7 -7 -6 -15 4 -28 13 -16 12 -17 -3 -5 -9 8 -22 11 -29 7 -8 -6 -8 -2
0 14 15 27 10 27 -12 1z"/>
<path d="M1219 3938 c-6 -24 -3 -45 8 -45 15 0 18 33 3 42 -5 3 -10 5 -11 3z"/>
<path d="M1042 3897 c-9 -10 -9 -17 1 -28 6 -8 11 -12 10 -10 -2 2 2 10 9 18
7 9 8 17 1 24 -7 7 -14 5 -21 -4z"/>
<path d="M4080 3895 c-10 -12 -10 -18 1 -32 12 -14 12 -15 1 -9 -11 7 -12 4
-4 -11 7 -12 20 -19 34 -18 20 2 23 7 23 40 -1 31 -5 39 -22 41 -11 2 -26 -3
-33 -11z"/>
<path d="M4220 3895 c-24 -29 18 -97 46 -74 7 6 19 7 25 3 8 -4 9 -3 5 4 -4 7
-4 18 0 24 12 19 12 45 0 46 -6 0 -23 3 -38 5 -16 2 -32 -1 -38 -8z"/>
<path d="M4623 3878 c-8 -10 -21 -15 -27 -11 -6 3 -8 2 -3 -2 4 -5 -1 -17 -10
-28 -13 -15 -14 -18 -3 -12 11 7 10 1 -4 -20 -10 -17 -15 -27 -11 -23 11 10
47 -50 39 -64 -4 -6 1 -6 14 1 13 7 23 7 27 2 3 -6 14 -9 25 -8 10 1 16 5 13
11 -4 5 1 7 11 3 11 -4 15 -3 10 4 -3 6 4 21 17 35 12 13 23 33 24 45 2 19
-46 69 -66 69 -6 0 -8 4 -5 8 10 16 -35 7 -51 -10z"/>
<path d="M880 3858 c12 -15 13 -31 2 -24 -5 3 -9 -1 -9 -9 0 -8 4 -12 9 -9 13
8 10 -10 -4 -25 -9 -9 -9 -12 -1 -7 6 3 18 0 26 -8 8 -8 17 -12 21 -9 3 3 13
0 23 -8 9 -8 14 -9 10 -2 -5 8 -1 11 12 10 11 0 17 -5 14 -11 -7 -11 -11 -78
-5 -71 7 7 43 -26 38 -34 -2 -3 9 -6 25 -6 16 -1 29 3 29 8 0 4 4 6 9 3 15
-10 46 35 47 70 0 24 -7 40 -24 56 -14 13 -22 17 -17 10 6 -11 3 -12 -12 -3
-11 6 -23 7 -27 4 -3 -3 -6 -2 -6 3 0 6 -7 19 -16 30 -8 10 -12 12 -8 4 5 -10
0 -9 -14 4 -24 21 -29 31 -9 20 7 -4 9 -3 4 2 -11 11 -98 14 -91 2 7 -11 -9
-10 -24 2 -9 7 -9 7 -2 -2z"/>
<path d="M1514 3848 c-3 -11 -11 -15 -17 -12 -7 4 -1 -5 12 -19 22 -24 26 -25
41 -12 9 8 19 13 22 10 2 -3 5 2 5 10 0 8 -4 12 -9 9 -11 -7 -10 10 2 22 6 6
-2 9 -20 9 -20 1 -32 -5 -36 -17z"/>
<path d="M3903 3849 c-3 -10 -9 -17 -13 -14 -5 3 -12 0 -16 -6 -4 -7 -3 -9 4
-5 6 3 18 -1 26 -10 9 -8 13 -20 10 -26 -4 -7 -2 -8 5 -4 6 4 9 11 6 16 -3 4
3 10 14 13 28 7 21 52 -9 53 -14 1 -24 -5 -27 -17z"/>
<path d="M772 3828 c-7 -7 -12 -27 -12 -44 0 -26 6 -36 29 -47 28 -14 31 -13
50 7 24 26 26 45 8 69 -15 22 -60 30 -75 15z"/>
<path d="M149 3766 c-7 -38 -2 -51 21 -51 20 0 25 5 25 25 0 18 -6 26 -22 28
-13 2 -23 1 -24 -2z"/>
<path d="M4110 3730 c-8 -5 -19 -6 -25 -3 -5 4 -6 2 -2 -2 4 -5 -3 -14 -15
-21 -18 -10 -23 -22 -24 -61 -1 -26 2 -53 7 -59 12 -14 98 -17 115 -3 7 6 17
9 21 6 4 -3 9 7 10 21 1 15 3 39 6 55 2 15 0 30 -6 34 -6 4 -7 1 -2 -8 4 -8
-1 -5 -12 6 -11 11 -18 25 -15 30 3 6 2 7 -3 3 -4 -4 -15 -3 -24 2 -10 5 -23
5 -31 0z"/>
<path d="M260 3650 c-17 -17 -19 -24 -10 -35 7 -8 8 -20 4 -27 -5 -10 -4 -11
7 0 14 13 30 16 27 5 -2 -5 2 -9 7 -10 6 -1 9 5 7 13 -3 13 10 19 31 15 5 -1
6 3 2 9 -3 6 -11 8 -16 5 -5 -4 -9 0 -9 8 0 8 -6 20 -14 26 -12 10 -19 8 -36
-9z"/>
<path d="M45 3648 c7 -17 -4 -24 -30 -18 -5 1 -7 -2 -3 -5 4 -4 3 -15 -2 -25
-6 -11 -4 -24 6 -39 12 -16 12 -21 2 -19 -19 4 -22 -62 -4 -87 l15 -20 -2 20
c-1 14 4 20 16 19 14 -2 15 1 6 12 -9 11 -8 18 2 32 18 22 32 32 40 27 3 -3 6
16 6 40 0 24 -3 42 -8 39 -4 -2 -17 6 -29 18 -16 17 -19 18 -15 6z m5 -118 c0
-5 -5 -10 -11 -10 -5 0 -7 5 -4 10 3 6 8 10 11 10 2 0 4 -4 4 -10z"/>
<path d="M4606 3647 c4 -12 2 -16 -8 -12 -18 7 -74 -50 -59 -59 15 -10 14 -29
-1 -20 -7 4 -2 -4 11 -17 33 -31 55 -31 86 1 30 31 27 61 -10 98 -16 16 -23
19 -19 9z"/>
<path d="M467 3619 c13 -12 31 -15 30 -4 -1 5 -10 10 -20 10 -10 1 -14 -2 -10
-6z"/>
<path d="M879 3595 c0 0 -3 -9 -5 -20 -11 -49 -11 -67 3 -72 11 -4 11 -8 1
-21 -10 -12 -10 -14 0 -8 6 4 12 3 12 -3 0 -5 -4 -13 -10 -16 -5 -3 -8 -25 -7
-50 1 -24 5 -41 9 -39 13 8 9 -11 -4 -26 -11 -12 -10 -12 5 0 16 11 22 9 49
-16 17 -16 28 -23 24 -16 -4 6 -3 12 1 12 5 0 15 -6 22 -12 7 -7 12 -8 11 -3
-5 24 1 37 15 32 8 -4 17 -1 21 5 5 7 2 8 -6 3 -9 -5 -11 -4 -6 4 6 9 13 9 29
-2 13 -8 43 -13 72 -12 l49 1 2 50 c2 40 -2 54 -23 76 -19 20 -30 25 -42 18
-10 -5 -23 -5 -31 0 -9 5 -19 5 -26 -1 -13 -11 -54 8 -54 24 0 4 -5 5 -12 1
-8 -5 -8 -3 -2 7 11 17 12 79 1 72 -4 -2 -14 0 -21 6 -7 6 -27 9 -44 8 -18 -1
-32 -2 -33 -2z"/>
<path d="M4875 3578 c6 -16 -2 -22 -26 -20 -3 1 -5 -12 -5 -29 0 -16 4 -29 9
-29 5 0 5 -5 -1 -13 -8 -9 -3 -12 19 -12 16 -1 29 3 29 8 0 5 8 3 17 -4 10 -8
14 -9 10 -2 -4 7 3 21 15 34 13 12 17 19 11 15 -16 -9 -17 6 -2 21 8 8 6 11
-7 10 -12 -1 -19 4 -18 14 1 9 -5 16 -12 16 -7 0 -11 -4 -8 -9 8 -13 -11 -9
-25 5 -10 10 -11 9 -6 -5z"/>
<path d="M738 3550 c13 -16 16 -34 4 -26 -5 3 -8 -15 -8 -39 1 -33 4 -41 14
-33 6 6 12 6 12 1 0 -5 13 -9 28 -8 19 0 28 5 28 17 0 9 -4 14 -9 11 -5 -3 -2
6 8 20 10 17 13 27 6 32 -6 3 -11 3 -11 -1 0 -4 -8 0 -18 9 -10 10 -22 14 -25
11 -4 -4 -15 -1 -24 7 -15 11 -16 11 -5 -1z"/>
<path d="M402 3512 c9 -11 9 -14 1 -9 -8 5 -11 1 -10 -11 1 -13 8 -18 24 -16
13 1 30 -4 38 -13 16 -15 17 -14 19 27 1 16 -5 25 -14 26 -8 0 -17 2 -20 4 -3
1 -15 4 -28 5 -19 2 -20 0 -10 -13z"/>
<path d="M1426 3493 c-3 -3 -6 -19 -6 -35 0 -21 5 -28 19 -28 22 0 38 18 38
43 0 9 -2 15 -5 12 -3 -2 -12 0 -22 5 -10 5 -20 6 -24 3z"/>
<path d="M4494 3469 c0 -10 5 -15 11 -11 5 3 4 -2 -3 -11 -15 -17 -7 -41 9
-31 5 3 17 0 26 -8 9 -7 14 -8 10 -2 -7 12 16 38 25 29 2 -3 5 2 5 10 0 8 -4
12 -9 9 -12 -8 -10 10 5 27 10 12 10 12 -2 2 -17 -14 -35 -17 -27 -5 3 5 -7 8
-22 8 -20 0 -28 -5 -28 -17z"/>
<path d="M84 3441 c6 -9 -21 -31 -28 -23 -4 3 -4 -1 -1 -10 4 -9 1 -19 -5 -23
-7 -4 -3 -15 12 -31 29 -30 78 -32 103 -4 10 11 21 18 25 15 3 -2 6 9 6 25 0
17 -2 28 -4 25 -3 -2 -18 3 -35 11 -31 16 -79 26 -73 15z"/>
<path d="M5001 3355 c-15 -17 -18 -23 -7 -19 15 6 21 -6 17 -30 -1 -5 5 -4 13
3 8 7 19 10 24 7 10 -6 9 30 -1 40 -4 4 -14 1 -23 -7 -16 -13 -16 -12 -5 9 15
28 12 28 -18 -3z"/>
<path d="M4660 3350 c-8 -5 -17 -7 -20 -5 -9 5 -6 -27 4 -43 4 -6 5 -16 2 -20
-2 -4 4 -8 14 -8 10 0 16 4 14 8 -3 4 -1 8 3 8 5 0 18 7 29 16 10 8 13 13 7 9
-7 -3 -13 -2 -13 2 0 5 6 15 13 22 10 11 9 12 -1 7 -7 -4 -18 -3 -25 3 -8 6
-18 6 -27 1z"/>
<path d="M213 3300 c-1 -11 2 -22 6 -24 4 -3 7 4 8 14 1 11 -2 22 -6 24 -4 3
-7 -4 -8 -14z"/>
<path d="M4824 3288 c-16 -17 -23 -28 -16 -23 11 6 12 3 4 -12 -9 -15 -8 -20
4 -21 35 -4 76 -1 69 6 -2 3 0 13 6 23 8 16 5 21 -15 31 -14 6 -23 15 -20 19
11 18 -3 8 -32 -23z"/>
<path d="M4532 3278 c-16 -16 -15 -40 3 -64 15 -18 15 -18 8 0 -4 14 -3 17 6
12 17 -11 38 10 36 35 -2 25 -35 35 -53 17z"/>
<path d="M40 3241 c-8 -6 -17 -8 -20 -6 -3 2 -6 -4 -6 -14 0 -28 41 -22 42 7
1 12 1 22 0 22 0 0 -8 -4 -16 -9z"/>
<path d="M1283 3234 c-8 -21 5 -45 27 -51 11 -3 17 -10 13 -16 -3 -5 -2 -7 3
-4 5 3 9 23 9 44 -1 32 -5 38 -24 39 -12 1 -25 -5 -28 -12z"/>
<path d="M4189 3248 c-1 -2 -3 -12 -4 -23 -2 -17 4 -21 25 -20 23 0 26 3 19
16 -4 9 -5 19 -2 23 3 3 -3 6 -15 6 -12 0 -23 -1 -23 -2z"/>
<path d="M495 3198 c4 -9 2 -19 -4 -23 -16 -9 6 -46 23 -39 19 7 30 -14 16
-31 -9 -11 -7 -18 9 -34 20 -20 23 -20 45 -6 24 16 24 15 22 -9 -4 -28 24 -59
54 -61 11 -1 30 10 42 23 13 14 17 22 10 17 -11 -6 -12 -3 -5 11 18 40 10 57
-27 59 -19 1 -41 -2 -48 -8 -9 -7 -16 -6 -25 3 -9 10 -9 11 1 5 11 -6 12 -3 3
12 -6 11 -8 22 -6 25 8 8 -29 3 -43 -6 -16 -10 -35 3 -28 19 2 7 -7 23 -20 36
-17 16 -23 18 -19 7z"/>
<path d="M5032 3187 l-22 -23 29 0 c25 0 28 2 21 17 -5 9 -6 19 -3 23 3 3 4 6
1 6 -2 0 -14 -10 -26 -23z"/>
<path d="M46 3183 c-4 -9 -13 -13 -22 -9 -14 5 -15 4 -5 -8 7 -8 10 -19 7 -24
-3 -6 1 -15 9 -22 8 -7 13 -16 10 -20 -10 -16 45 3 61 21 17 19 28 63 13 53
-4 -2 -13 1 -21 8 -18 18 -46 18 -52 1z"/>
<path d="M4535 3169 c-4 -6 -13 -8 -21 -5 -18 7 -30 -40 -14 -58 17 -21 47
-15 59 10 7 17 6 25 -4 34 -8 7 -12 16 -9 21 3 5 3 9 0 9 -3 0 -8 -5 -11 -11z"/>
<path d="M4049 3164 c0 -5 -2 -17 -4 -26 -2 -12 3 -15 17 -13 30 6 31 10 8 30
-11 10 -20 14 -21 9z"/>
<path d="M147 3143 c-2 -4 -3 -23 -3 -42 1 -44 33 -51 67 -15 17 18 19 23 6
18 -16 -6 -22 5 -18 29 1 5 -3 6 -9 2 -6 -4 -17 -2 -25 5 -7 6 -15 7 -18 3z"/>
<path d="M425 3139 c-4 -6 -14 -8 -22 -5 -8 3 -11 2 -8 -3 8 -14 42 -9 42 6 0
16 -4 16 -12 2z"/>
<path d="M1079 3149 c-7 -38 -7 -49 1 -54 6 -3 10 -11 10 -16 0 -6 -5 -7 -12
-3 -7 5 -8 3 -3 -6 6 -10 4 -12 -9 -7 -10 4 -15 3 -11 -4 4 -5 2 -15 -3 -22
-9 -12 -13 -51 -4 -42 3 2 13 0 23 -5 12 -7 20 -6 24 1 4 6 13 8 19 6 18 -7
13 29 -8 51 -16 19 -16 21 0 37 18 18 28 58 12 49 -5 -3 -15 0 -23 6 -8 7 -15
11 -16 9z"/>
<path d="M1216 3141 c-3 -5 1 -14 9 -21 12 -10 18 -10 30 0 18 15 11 30 -15
30 -10 0 -21 -4 -24 -9z"/>
<path d="M4365 3139 c-4 -6 -14 -8 -23 -4 -14 5 -14 3 1 -13 9 -10 15 -21 12
-24 -3 -2 1 -5 8 -5 8 0 13 12 13 29 0 31 -1 33 -11 17z"/>
<path d="M1422 3104 c4 -21 22 -23 26 -1 2 10 -3 17 -13 17 -10 0 -15 -6 -13
-16z"/>
<path d="M1184 3080 c0 -21 4 -27 20 -26 29 1 30 49 0 51 -16 1 -20 -4 -20
-25z"/>
<path d="M4155 3099 c-4 -6 -13 -8 -21 -5 -8 3 -14 2 -15 -2 0 -4 -2 -15 -4
-24 -2 -10 1 -18 6 -18 6 0 8 -4 5 -8 -10 -17 31 -5 50 14 10 10 17 18 15 17
-8 -5 -31 20 -25 28 3 5 3 9 0 9 -3 0 -8 -5 -11 -11z"/>
<path d="M4495 3010 c-1 -22 2 -27 12 -19 7 6 17 8 22 5 5 -4 13 -1 17 6 4 7
3 10 -1 5 -5 -4 -18 2 -29 12 -21 20 -21 20 -21 -9z"/>
<path d="M154 2980 c0 -21 4 -26 20 -25 29 2 29 48 0 50 -16 1 -20 -5 -20 -25z"/>
<path d="M287 3003 c-8 -13 -2 -48 9 -47 5 0 11 8 12 18 4 20 -13 43 -21 29z"/>
<path d="M1317 2997 c-3 -8 -2 -20 3 -27 6 -10 10 -8 19 7 10 19 6 33 -10 33
-4 0 -9 -6 -12 -13z"/>
<path d="M54 2968 c-9 -14 -14 -51 -6 -43 3 2 13 0 23 -6 15 -7 21 -6 25 6 5
13 9 13 23 3 14 -12 14 -11 3 4 -8 9 -10 23 -6 29 4 8 3 9 -4 5 -7 -4 -12 -2
-12 3 0 15 -37 14 -46 -1z"/>
<path d="M4159 2963 c-7 -10 -9 -15 -4 -10 4 4 17 -1 28 -10 11 -10 17 -12 13
-5 -4 7 -2 12 5 12 8 0 8 4 -1 15 -16 19 -25 19 -41 -2z"/>
<path d="M1270 2956 c7 -7 13 -7 20 0 6 6 3 10 -10 10 -13 0 -16 -4 -10 -10z"/>
<path d="M4390 2940 c-8 -5 -17 -7 -20 -5 -4 2 -6 -9 -6 -24 0 -24 3 -27 25
-24 14 2 31 5 37 5 15 2 10 39 -7 48 -8 5 -21 5 -29 0z"/>
<path d="M819 2914 c-15 -16 -17 -24 -8 -29 8 -6 10 -4 4 6 -6 11 -5 12 5 2
17 -16 12 -21 -25 -26 -31 -4 -40 -28 -22 -54 5 -7 5 -18 1 -25 -5 -10 -4 -11
7 0 7 6 17 12 22 12 4 0 5 -6 1 -12 -4 -7 4 -2 18 12 20 18 24 29 17 42 -6 10
-5 19 1 23 5 3 10 3 10 -1 0 -4 8 0 18 9 10 10 18 27 17 39 -2 29 -39 31 -66
2z"/>
<path d="M3743 2925 c0 -5 -2 -15 -4 -21 -2 -7 1 -13 6 -14 19 -3 35 -22 28
-34 -3 -6 5 0 18 13 13 14 23 34 23 45 0 17 -6 21 -35 21 -20 1 -36 -4 -36
-10z"/>
<path d="M4970 2900 c-8 -5 -17 -7 -20 -5 -14 9 -3 -37 13 -52 19 -19 53 -24
55 -9 1 6 3 24 6 39 2 16 2 26 -1 23 -3 -3 -13 -1 -22 4 -10 5 -23 5 -31 0z"/>
<path d="M4564 2889 c-3 -6 -1 -16 4 -21 8 -8 11 -5 9 11 -1 24 -3 25 -13 10z"/>
<path d="M4878 2833 c-2 -4 -4 -17 -4 -28 1 -29 49 -27 51 2 1 12 -2 20 -7 17
-5 -3 -15 -1 -23 6 -7 6 -15 7 -17 3z"/>
<path d="M4114 2806 c1 -22 41 -32 53 -13 3 6 1 7 -5 3 -6 -3 -13 2 -16 12 -8
25 -33 24 -32 -2z"/>
<path d="M4256 2816 c5 -14 -3 -20 -26 -18 -3 0 -5 -13 -5 -28 -1 -16 1 -27 4
-25 2 3 13 -3 24 -12 11 -10 17 -12 13 -5 -4 7 -2 12 7 12 8 0 20 7 27 15 10
12 10 18 -1 32 -8 9 -9 14 -4 11 6 -4 11 2 11 12 0 14 -3 16 -13 8 -9 -7 -17
-7 -28 2 -13 11 -14 10 -9 -4z"/>
<path d="M4598 2807 c-7 -15 -7 -18 2 -12 9 6 9 3 1 -13 -15 -28 9 -47 46 -36
16 4 31 7 34 6 9 -1 4 37 -6 45 -4 5 -5 1 0 -7 4 -8 -1 -6 -12 5 -11 11 -19
22 -17 25 1 3 -6 6 -18 6 -11 0 -24 -9 -30 -19z"/>
<path d="M85 2792 c2 -3 0 -13 -5 -23 -7 -12 -6 -20 1 -24 6 -4 8 -14 4 -22
-4 -13 -3 -14 9 -4 8 7 20 10 25 6 15 -8 26 44 12 58 -6 6 -20 11 -31 12 -11
1 -18 0 -15 -3z"/>
<path d="M254 2776 c1 -14 8 -21 22 -22 28 -1 26 39 -3 41 -14 1 -20 -4 -19
-19z"/>
<path d="M4354 2759 c-4 -8 -3 -9 4 -5 7 4 12 5 12 1 0 -3 -10 -9 -22 -14 -30
-11 -34 -68 -6 -77 10 -3 16 -9 14 -13 -3 -4 1 -8 9 -8 8 0 11 5 8 10 -4 6 1
8 11 4 9 -4 15 -3 12 2 -3 5 0 11 7 14 21 8 13 43 -15 72 -19 18 -28 22 -34
14z"/>
<path d="M635 2619 c-4 -6 -14 -8 -22 -5 -8 3 -11 1 -8 -5 4 -5 2 -16 -4 -23
-8 -9 -4 -12 18 -12 16 0 28 5 28 12 0 7 -4 11 -9 8 -12 -8 -10 10 4 24 7 7 9
12 6 12 -4 0 -10 -5 -13 -11z"/>
<path d="M4280 2620 c0 -5 5 -10 11 -10 5 0 7 5 4 10 -3 6 -8 10 -11 10 -2 0
-4 -4 -4 -10z"/>
<path d="M409 2590 c-9 -5 -15 -19 -14 -32 2 -31 49 -33 53 -2 4 27 -18 45
-39 34z"/>
<path d="M4630 2590 c-8 -5 -17 -7 -20 -5 -4 2 -6 -6 -5 -18 2 -28 48 -31 53
-3 5 24 -9 37 -28 26z"/>
<path d="M4830 2562 c-13 -15 -21 -24 -16 -20 11 9 35 -14 28 -27 -3 -5 7 1
21 14 15 14 27 27 27 29 0 3 -3 3 -6 -1 -8 -8 -33 16 -27 26 9 15 -3 6 -27
-21z"/>
<path d="M4660 2542 c-14 -10 -26 -24 -28 -31 -2 -8 -11 -20 -20 -27 -16 -11
-15 -12 3 -11 11 1 21 -4 21 -13 1 -8 2 -19 3 -23 0 -4 9 -3 19 2 11 6 24 6
34 0 11 -6 19 -5 24 2 5 8 3 9 -7 4 -8 -4 -5 1 6 12 11 11 25 18 30 15 6 -3 4
1 -2 9 -7 7 -13 17 -13 22 0 4 6 5 13 1 6 -4 2 3 -11 15 -12 12 -19 28 -16 34
5 8 3 8 -7 0 -16 -15 -33 -17 -24 -3 8 13 5 12 -25 -8z"/>
<path d="M4915 2538 c1 -16 8 -23 24 -24 l22 -1 -22 23 c-27 29 -26 29 -24 2z"/>
<path d="M3970 2516 c-5 -5 -10 -16 -10 -24 0 -8 -5 -10 -12 -6 -9 6 -9 3 0
-9 8 -9 10 -22 6 -28 -4 -8 -3 -9 4 -5 7 4 12 2 12 -4 0 -6 5 -8 12 -4 8 5 9
2 5 -10 -4 -10 -3 -15 4 -11 5 4 18 1 27 -7 15 -12 16 -11 3 5 -7 9 -9 17 -4
17 5 0 18 7 29 16 10 8 13 13 7 9 -14 -7 -18 7 -6 19 10 10 11 46 1 40 -5 -3
-14 -1 -21 4 -16 12 -44 11 -57 -2z"/>
<path d="M4293 2515 c0 -8 4 -12 9 -9 5 3 6 10 3 15 -9 13 -12 11 -12 -6z"/>
<path d="M4246 2505 c-5 -15 17 -39 27 -28 12 11 8 31 -7 36 -8 3 -17 0 -20
-8z"/>
<path d="M4894 2496 c-3 -9 -11 -13 -17 -9 -5 3 -7 2 -4 -4 10 -15 52 -10 52
6 0 20 -24 26 -31 7z"/>
<path d="M3551 2464 c-24 -25 -37 -69 -22 -78 4 -3 7 -17 6 -30 -2 -14 0 -25
3 -25 24 4 33 -3 28 -17 -5 -14 -4 -15 9 -4 12 10 18 10 32 -1 11 -10 14 -10
9 -1 -7 12 38 37 53 28 4 -3 8 0 9 7 11 94 12 92 -21 123 -17 16 -28 23 -23
17 8 -14 -6 -18 -18 -6 -14 15 -44 8 -65 -13z"/>
<path d="M213 2443 c-9 -22 4 -40 28 -38 33 2 33 48 0 50 -12 1 -25 -4 -28
-12z"/>
<path d="M3840 2451 c-8 -6 -18 -7 -24 -4 -5 3 -6 1 -2 -6 4 -6 2 -19 -6 -28
-8 -11 -8 -14 -1 -10 7 4 21 -3 34 -15 12 -13 19 -18 16 -12 -6 11 14 37 24
31 2 -1 1 2 -3 8 -12 14 -9 27 4 19 7 -4 8 -3 4 4 -4 6 -14 8 -23 5 -11 -4
-14 -3 -9 5 9 14 6 15 -14 3z"/>
<path d="M4860 2420 c-21 -13 -20 -46 2 -47 24 -2 42 31 25 45 -8 7 -18 7 -27
2z"/>
<path d="M4945 2419 c-4 -6 -14 -8 -24 -4 -13 5 -14 4 -3 -6 6 -7 12 -17 12
-22 0 -4 -6 -5 -12 -2 -7 4 -4 -1 6 -9 24 -19 50 -21 63 -3 10 12 14 52 5 42
-3 -2 -13 0 -23 5 -12 7 -20 6 -24 -1z"/>
<path d="M429 2413 c-1 -5 -1 -11 0 -15 0 -5 -3 -8 -8 -8 -10 0 -7 -32 3 -48
3 -5 15 -8 28 -7 31 2 31 45 0 61 -12 6 -19 14 -15 17 3 4 3 7 0 7 -4 0 -8 -3
-8 -7z"/>
<path d="M1075 2382 c-2 -2 -1 -10 2 -18 5 -13 -8 -19 -30 -15 -5 1 -6 -3 -2
-9 3 -6 11 -8 16 -5 13 9 11 -9 -3 -24 -7 -8 -8 -12 -3 -9 6 3 19 -4 30 -15
11 -11 14 -16 6 -12 -9 5 -12 4 -7 -3 5 -9 13 -9 28 -1 11 6 18 7 15 2 -3 -5
4 -9 16 -8 12 1 22 8 22 16 1 29 17 59 28 52 7 -3 -1 7 -17 23 -20 21 -38 29
-63 29 -19 0 -36 -1 -38 -3z"/>
<path d="M4679 2383 c-1 -5 -1 -11 0 -15 0 -5 -3 -8 -7 -8 -5 0 -9 -6 -9 -13
0 -8 6 -14 12 -14 6 0 11 13 11 29 0 26 -4 39 -7 21z"/>
<path d="M4705 2381 c-3 -5 -2 -12 3 -15 5 -3 9 1 9 9 0 17 -3 19 -12 6z"/>
<path d="M4806 2313 c-3 -3 -2 -11 1 -19 5 -13 -8 -19 -30 -15 -5 1 -6 -2 -3
-7 3 -5 15 -8 28 -7 16 1 22 7 20 19 -2 11 2 16 12 14 8 -2 15 2 15 7 1 10
-34 16 -43 8z"/>
<path d="M4283 2290 c-3 -11 -10 -17 -16 -13 -6 3 -7 1 -3 -6 4 -6 2 -20 -6
-29 -12 -15 -11 -16 5 -3 9 7 17 9 17 4 0 -5 12 -9 28 -8 22 0 27 4 27 26 1
34 -44 59 -52 29z"/>
<path d="M4084 2268 c-4 -5 -12 -7 -20 -4 -8 3 -14 2 -15 -2 0 -4 -3 -19 -5
-35 -5 -32 12 -70 29 -64 7 3 22 -4 34 -15 20 -19 21 -19 20 -1 -1 11 4 18 14
17 13 -1 16 7 15 37 -1 24 2 36 9 32 5 -3 0 5 -12 17 -23 24 -60 34 -69 18z"/>
<path d="M4495 2270 c7 -11 -20 -31 -31 -22 -4 4 -2 -1 5 -11 8 -9 11 -20 8
-23 -3 -4 1 -13 9 -21 8 -8 12 -18 10 -22 -3 -4 8 -7 24 -6 15 0 26 3 23 7 -6
11 11 10 23 -2 6 -6 9 6 9 33 0 25 -6 50 -15 58 -15 14 -73 22 -65 9z"/>
<path d="M765 2240 c-4 -7 -1 -19 7 -27 14 -13 16 -13 21 0 7 20 -18 43 -28
27z"/>
<path d="M4195 2221 c-32 -17 -38 -39 -17 -63 6 -8 10 -17 7 -20 -3 -3 8 -5
24 -4 55 2 81 57 36 78 -13 6 -22 15 -19 19 6 11 6 11 -31 -10z"/>
<path d="M4709 2213 c-1 -2 -2 -13 -2 -25 -1 -17 4 -22 23 -22 34 0 36 47 2
49 -12 1 -22 0 -23 -2z"/>
<path d="M3879 2145 c0 0 -2 -10 -3 -22 -3 -30 26 -60 55 -58 21 1 24 7 23 40
0 38 -1 39 -37 40 -20 0 -37 0 -38 0z"/>
<path d="M1007 2120 c-10 -12 -22 -18 -28 -15 -5 4 -8 1 -7 -6 2 -6 -3 -14
-11 -17 -8 -2 -11 0 -7 6 3 6 1 14 -5 18 -8 4 -9 3 -5 -4 4 -7 1 -12 -7 -12
-8 0 -20 -7 -27 -15 -10 -12 -8 -16 15 -25 16 -6 23 -14 19 -22 -4 -7 -3 -8 5
-4 6 4 9 11 7 15 -3 4 -1 13 5 21 7 12 9 11 10 -5 1 -11 1 -23 1 -26 -1 -4 27
-6 61 -5 54 2 62 4 62 21 0 11 -4 25 -8 32 -5 7 -6 16 -4 20 3 5 -3 9 -13 9
-10 0 -16 -4 -13 -9 3 -5 -4 -3 -16 5 -12 7 -19 19 -16 25 6 18 2 16 -18 -7z"/>
<path d="M3873 2073 c4 -6 0 -16 -8 -21 -20 -10 -28 -63 -10 -55 7 2 16 0 20
-6 4 -7 12 -8 24 -1 10 5 20 7 23 5 9 -9 2 30 -8 45 -11 18 -51 50 -41 33z"/>
<path d="M5043 2051 c-12 -11 -25 -17 -29 -13 -5 4 1 -5 14 -19 22 -25 54 -32
69 -14 5 4 2 5 -4 1 -17 -9 -17 6 -1 22 10 10 8 14 -10 18 -12 4 -19 10 -16
15 9 15 -1 10 -23 -10z"/>
<path d="M325 2029 c-4 -6 -13 -8 -21 -5 -8 3 -14 2 -15 -2 0 -4 -2 -17 -5
-29 -5 -27 11 -38 53 -38 24 0 29 3 21 12 -7 9 -7 18 3 31 7 9 9 14 5 10 -11
-10 -38 11 -30 23 3 5 3 9 0 9 -3 0 -8 -5 -11 -11z"/>
<path d="M873 1992 c0 -24 15 -41 36 -39 19 1 24 37 6 38 -5 1 -17 5 -26 9
-11 7 -16 4 -16 -8z"/>
<path d="M4159 2008 c-6 -22 -4 -50 4 -55 6 -3 7 -1 3 5 -4 7 -3 12 3 12 5 0
13 -5 16 -10 10 -16 22 -3 21 22 -1 16 -8 24 -23 26 -13 2 -23 2 -24 0z"/>
<path d="M805 1932 c2 -37 18 -52 48 -46 24 4 27 7 31 31 6 31 -10 48 -47 48
-31 0 -33 -1 -32 -33z"/>
<path d="M316 1931 c-3 -4 2 -17 10 -27 9 -10 13 -14 11 -9 -6 13 18 36 29 27
4 -4 4 -1 0 6 -8 14 -42 16 -50 3z"/>
<path d="M4466 1929 c7 -12 -26 -40 -38 -33 -6 4 -8 2 -5 -3 8 -13 -17 -35
-29 -25 -4 4 -2 -1 5 -10 7 -9 10 -21 7 -26 -3 -5 5 -8 16 -7 24 2 41 36 24
47 -6 4 -7 10 -2 15 4 4 12 0 17 -9 15 -26 42 -38 60 -26 11 8 9 8 -6 3 -16
-5 -17 -4 -8 6 9 9 16 9 25 1 18 -15 54 -8 49 9 -2 8 -4 19 -4 25 0 6 -11 10
-24 8 -17 -2 -23 2 -19 11 3 10 0 12 -11 8 -10 -4 -14 -2 -10 3 3 6 -6 10 -23
10 -16 0 -27 -3 -24 -7z"/>
<path d="M4873 1926 c-3 -5 -1 -6 5 -2 7 4 12 3 12 -3 0 -5 -4 -13 -10 -16
-21 -13 -7 -73 24 -102 16 -15 27 -23 23 -17 -3 6 3 20 15 30 12 11 18 13 14
7 -4 -7 -5 -13 -1 -13 3 0 10 12 15 26 7 16 14 23 22 18 10 -6 10 -4 0 8 -7 9
-11 20 -10 25 2 4 -7 19 -19 32 -20 21 -24 22 -40 10 -9 -8 -14 -9 -11 -4 4 6
-2 11 -13 11 -11 0 -23 -5 -26 -10z"/>
<path d="M4154 1888 c-4 -5 -12 -7 -19 -4 -8 3 -17 -4 -20 -15 -6 -17 -9 -18
-23 -7 -15 12 -16 11 -3 -4 11 -15 11 -21 0 -35 -10 -11 -10 -14 -1 -9 6 4 12
3 12 -1 0 -5 -6 -15 -12 -22 -8 -8 -8 -11 -2 -8 16 9 32 -13 28 -38 -1 -10 2
-25 7 -32 6 -7 8 -16 5 -21 -3 -5 3 -8 12 -7 19 1 63 35 58 44 -2 3 6 15 17
26 11 11 16 14 12 6 -5 -9 -4 -12 2 -8 5 3 11 28 12 55 1 38 -3 53 -19 67 -23
20 -58 27 -66 13z"/>
<path d="M4016 1816 c5 -14 4 -17 -5 -12 -16 10 -38 -9 -36 -32 0 -10 10 -28
21 -40 l21 -22 19 22 c25 30 24 48 -4 78 -18 20 -22 21 -16 6z"/>
<path d="M4494 1821 c3 -5 -2 -11 -11 -13 -12 -2 -18 -13 -19 -34 -1 -27 2
-30 32 -32 18 -2 36 3 40 10 11 17 12 48 2 42 -4 -3 -8 -1 -8 3 0 5 -9 14 -21
21 -12 8 -18 9 -15 3z"/>
<path d="M4 1786 c-8 -21 -1 -66 11 -68 12 -2 16 70 4 78 -5 3 -12 -1 -15 -10z"/>
<path d="M769 1799 c-9 -25 -4 -46 9 -45 22 4 26 21 7 36 -8 7 -16 11 -16 9z"/>
<path d="M43 1756 c0 -8 6 -12 14 -9 17 7 17 23 0 23 -8 0 -14 -6 -14 -14z"/>
<path d="M360 1755 c-6 -8 -10 -29 -7 -47 3 -30 6 -33 33 -30 50 4 52 5 47 18
-2 6 0 15 6 19 7 4 8 12 1 24 -5 10 -7 20 -5 23 2 2 -11 4 -30 5 -19 0 -39 -5
-45 -12z"/>
<path d="M3820 1742 c-14 -14 -19 -22 -11 -17 11 6 12 5 5 -6 -5 -8 -9 -28
-10 -45 -1 -29 1 -30 42 -30 24 0 41 3 38 7 -7 12 26 40 38 33 7 -4 8 -2 4 5
-4 6 -12 9 -17 6 -13 -8 -11 9 2 22 8 8 6 11 -7 10 -12 -1 -19 4 -18 15 1 10
-2 15 -8 12 -5 -3 -14 -1 -21 4 -9 8 -19 3 -37 -16z"/>
<path d="M523 1725 c0 -8 4 -12 9 -9 5 3 6 10 3 15 -9 13 -12 11 -12 -6z"/>
<path d="M4922 1722 c-26 -26 -23 -63 5 -78 13 -6 20 -13 17 -16 -3 -3 0 -9 7
-14 7 -4 10 -3 6 3 -4 6 2 13 13 16 11 3 24 17 30 32 6 17 14 24 22 19 7 -4 2
4 -12 17 -13 13 -29 23 -33 21 -5 -1 -15 2 -22 8 -10 9 -18 7 -33 -8z"/>
<path d="M49 1725 c0 0 -2 -9 -3 -21 -2 -16 3 -20 26 -20 21 0 25 3 17 12 -6
7 -8 17 -6 21 4 6 -24 13 -34 8z"/>
<path d="M4046 1721 c-1 -3 -1 -17 1 -31 2 -14 4 -30 5 -37 1 -7 5 -10 10 -7
5 3 5 10 2 16 -4 6 -1 8 7 6 8 -3 13 -11 11 -17 -1 -7 1 -10 6 -8 4 3 7 22 7
43 -1 31 -5 38 -24 39 -12 1 -23 -1 -25 -4z"/>
<path d="M0 1667 c0 -21 7 -40 18 -48 14 -11 15 -11 5 1 -14 15 -18 34 -5 26
14 -9 11 32 -4 45 -12 9 -14 6 -14 -24z"/>
<path d="M1010 1651 c-8 -6 -17 -8 -20 -6 -3 2 -6 -5 -6 -15 0 -23 21 -33 34
-17 7 9 13 48 8 47 -1 0 -8 -4 -16 -9z"/>
<path d="M809 1583 c-10 -11 -10 -14 -1 -9 14 8 16 -6 2 -20 -6 -6 1 -9 19 -9
23 -1 27 4 29 27 2 22 -2 28 -17 28 -10 0 -25 -8 -32 -17z"/>
<path d="M905 1591 c-12 -20 35 -25 52 -6 4 4 3 5 -4 1 -6 -3 -14 -2 -18 4 -8
13 -22 13 -30 1z"/>
<path d="M196 1578 c3 -5 1 -15 -5 -22 -8 -9 -7 -13 2 -13 6 0 19 -2 27 -4 10
-3 15 4 15 20 0 18 -6 25 -22 26 -12 1 -20 -2 -17 -7z"/>
<path d="M4672 1575 c0 -5 -3 -23 -5 -38 -4 -23 0 -30 20 -38 16 -6 22 -13 17
-21 -6 -9 -3 -9 9 0 9 8 22 10 28 6 8 -4 9 -3 5 4 -4 7 -2 12 3 12 14 0 14 50
1 70 -10 17 -76 21 -78 5z"/>
<path d="M4035 1537 c-26 -30 -26 -53 -1 -75 28 -23 47 -22 76 7 14 13 19 21
13 17 -7 -4 -13 -3 -13 1 0 5 6 15 13 22 10 11 9 12 -1 6 -9 -4 -24 3 -41 19
l-27 26 -19 -23z"/>
<path d="M4842 1546 c0 -6 -4 -30 -7 -53 -4 -28 -2 -44 7 -49 15 -10 49 -13
43 -5 -2 3 5 23 15 43 17 36 17 37 -1 54 -22 20 -55 26 -57 10z"/>
<path d="M617 1532 c-16 -17 -15 -20 10 -43 14 -13 23 -18 18 -10 -5 9 -2 18
7 25 13 10 13 13 -2 29 -16 16 -18 16 -33 -1z"/>
<path d="M798 1519 c-6 -4 -16 -5 -22 -2 -5 3 -6 1 -2 -6 4 -6 3 -18 -4 -26
-15 -19 26 -63 43 -46 14 14 30 14 22 1 -11 -18 0 -10 30 22 17 18 25 29 19
25 -11 -6 -28 7 -36 28 -4 11 -33 14 -50 4z"/>
<path d="M526 1509 c8 -13 -19 -24 -61 -24 -35 -1 -39 -4 -39 -25 0 -33 42
-36 57 -3 10 22 11 22 29 6 19 -17 61 -26 52 -11 -3 5 0 16 8 25 7 9 8 14 2
10 -12 -7 -38 16 -29 25 3 2 -2 5 -10 5 -8 0 -12 -4 -9 -8z"/>
<path d="M5045 1482 c-12 -12 -4 -72 10 -80 14 -7 23 -31 29 -74 1 -10 6 -21
11 -25 4 -5 4 -2 0 6 -6 11 -4 13 9 8 15 -6 17 2 15 81 l-2 87 -33 1 c-19 0
-36 -2 -39 -4z"/>
<path d="M24 1444 c-10 -8 -14 -13 -8 -10 13 7 37 -18 27 -27 -3 -4 -3 -7 0
-7 3 0 11 9 16 19 16 28 -9 46 -35 25z"/>
<path d="M760 1420 c-8 -5 -17 -7 -20 -5 -3 2 -7 -10 -8 -26 -1 -16 3 -29 8
-29 6 0 9 -4 6 -9 -3 -5 2 -8 11 -7 21 1 51 28 46 39 -3 4 1 15 9 24 10 13 10
15 0 9 -7 -4 -18 -3 -25 3 -8 6 -18 6 -27 1z"/>
<path d="M79 1418 c-7 -23 -6 -45 2 -55 6 -7 7 -18 3 -25 -4 -7 5 -2 19 11
l27 25 -22 23 c-20 22 -27 26 -29 21z"/>
<path d="M4590 1415 c0 -2 6 -8 13 -14 10 -8 14 -7 14 2 0 8 -6 14 -14 14 -7
0 -13 -1 -13 -2z"/>
<path d="M284 1367 c1 -14 9 -21 24 -22 12 -1 22 1 23 4 0 3 2 13 4 22 2 11
-5 15 -25 15 -21 0 -27 -4 -26 -19z"/>
<path d="M4803 1372 c-4 -9 -9 -9 -18 -2 -9 8 -12 4 -10 -14 2 -14 6 -30 11
-37 4 -7 3 -10 -3 -6 -5 3 -10 0 -10 -8 0 -8 4 -12 9 -9 11 7 10 -10 -2 -24
-6 -6 -7 -10 -4 -7 10 7 35 -15 29 -25 -2 -4 6 -6 18 -5 12 0 30 -2 39 -7 10
-5 19 -4 23 3 4 6 13 8 20 6 38 -15 67 89 33 120 -10 9 -16 19 -13 23 2 3 -23
6 -57 6 -39 -1 -62 -5 -65 -14z"/>
<path d="M495 1349 c-4 -6 -13 -8 -21 -5 -8 3 -11 0 -8 -8 3 -8 1 -17 -5 -21
-7 -4 -8 -12 -1 -24 5 -10 6 -22 2 -26 -4 -4 3 -3 14 3 12 6 25 8 29 4 3 -4
22 -7 41 -8 27 -1 32 2 23 13 -9 10 -8 18 2 31 7 9 9 14 5 10 -13 -11 -37 12
-29 26 3 6 3 8 -2 4 -4 -4 -16 -3 -26 2 -12 7 -20 6 -24 -1z"/>
<path d="M15 1326 c1 -12 9 -20 21 -21 15 -1 20 4 19 19 -1 12 -9 20 -21 21
-15 1 -20 -4 -19 -19z"/>
<path d="M4709 1348 c-6 -12 -5 -46 2 -43 4 3 7 14 6 25 -1 18 -5 25 -8 18z"/>
<path d="M284 1308 c-7 -11 23 -21 42 -14 8 3 13 10 9 15 -6 11 -44 10 -51 -1z"/>
<path d="M4419 1293 c-6 -15 -14 -22 -21 -17 -7 4 -2 -4 11 -17 31 -29 50 -30
82 -1 20 20 21 22 4 16 -11 -4 -17 -4 -13 1 4 4 0 14 -10 22 -10 9 -11 12 -2
7 8 -4 12 -3 7 1 -16 19 -49 12 -58 -12z"/>
<path d="M5040 1280 c-8 -5 -17 -7 -20 -5 -4 2 -6 -6 -5 -18 1 -12 11 -27 23
-33 12 -6 19 -15 14 -20 -4 -5 5 2 20 15 15 13 26 31 25 42 -1 10 -3 16 -5 14
-3 -2 -12 0 -21 5 -10 5 -23 5 -31 0z"/>
<path d="M4003 1227 c-24 -26 -23 -54 3 -78 22 -20 99 -36 88 -18 -2 4 6 18
18 30 13 12 17 19 11 15 -7 -4 -13 -3 -13 1 0 5 6 15 13 22 6 8 8 12 2 9 -5
-3 -19 4 -30 15 -11 11 -13 16 -5 12 8 -5 12 -4 7 0 -14 16 -77 11 -94 -8z"/>
<path d="M255 1199 c-5 -8 2 -45 11 -61 5 -7 2 -8 -7 -3 -11 6 -12 5 -1 -6 6
-7 12 -17 12 -22 0 -4 -6 -5 -12 -1 -7 4 -2 -4 11 -17 14 -13 32 -23 41 -23 9
0 27 10 41 23 13 13 19 21 12 17 -13 -7 -26 24 -27 68 -1 27 -4 30 -39 31 -21
0 -40 -2 -42 -6z"/>
<path d="M663 1191 c-2 -22 12 -37 21 -23 3 5 0 17 -7 26 -12 16 -13 16 -14
-3z"/>
<path d="M4634 1150 c0 -22 4 -26 26 -26 22 0 26 4 26 26 0 22 -4 26 -26 26
-22 0 -26 -4 -26 -26z"/>
<path d="M4739 1173 c-1 -2 -2 -13 -2 -25 -1 -18 4 -23 23 -23 20 0 25 5 25
24 0 18 -6 25 -22 26 -13 1 -23 0 -24 -2z"/>
<path d="M4912 1176 c9 -11 -23 -46 -35 -39 -6 3 -7 1 -3 -6 4 -6 10 -9 14 -7
9 5 32 -20 27 -28 -3 -3 5 3 17 13 21 19 34 66 16 55 -5 -3 -17 0 -26 7 -9 7
-14 10 -10 5z"/>
<path d="M5083 1135 c0 -6 9 -12 19 -12 10 -1 18 4 18 12 0 8 -8 13 -18 12
-10 0 -19 -6 -19 -12z"/>
<path d="M3697 1120 c-10 -12 -21 -18 -26 -16 -7 5 -18 -16 -18 -34 0 -3 -5
-16 -12 -29 -10 -17 -10 -21 -1 -16 9 6 9 3 2 -12 -8 -15 -5 -23 16 -43 14
-14 22 -18 17 -10 -7 12 -6 13 6 4 19 -16 47 -12 88 10 32 17 34 17 55 -3 26
-25 49 -27 66 -6 10 12 10 18 0 30 -6 8 -9 19 -6 24 4 5 1 13 -5 17 -8 4 -9 3
-5 -4 10 -16 -7 -15 -23 1 -8 6 -11 7 -8 1 4 -6 -3 -20 -15 -30 -12 -11 -18
-13 -14 -6 7 12 4 12 -15 2 l-24 -13 25 28 c14 16 20 25 14 22 -11 -6 -26 21
-28 52 -1 13 -11 16 -64 23 -7 1 -11 7 -8 15 7 18 3 16 -17 -7z"/>
<path d="M807 1104 c-3 -3 -3 -12 0 -20 3 -10 0 -12 -10 -8 -8 3 -19 0 -23 -8
-11 -17 -13 -48 -3 -42 4 2 17 -5 27 -17 18 -19 20 -19 19 -2 -1 11 5 18 15
18 9 0 20 4 25 8 4 5 2 7 -6 5 -7 -1 -16 3 -18 10 -3 7 -1 11 4 10 4 -2 8 2 8
7 0 6 -5 9 -12 7 -12 -3 -17 10 -14 31 1 9 -4 9 -12 1z"/>
<path d="M1113 1097 c-3 -6 -1 -7 5 -3 6 3 13 -2 16 -12 9 -26 38 -24 34 2 -3
22 -43 32 -55 13z"/>
<path d="M4823 977 c-16 -17 -22 -27 -15 -22 11 6 12 3 5 -11 -5 -11 -8 -28
-8 -39 0 -17 6 -19 45 -18 62 3 70 5 64 15 -3 5 -1 14 5 21 14 17 9 41 -13 63
-27 27 -52 24 -83 -9z"/>
<path d="M906 983 c-13 -13 -6 -42 9 -37 16 7 20 30 6 38 -4 3 -11 3 -15 -1z"/>
<path d="M5040 970 c-8 -5 -19 -6 -25 -3 -5 4 1 -6 14 -20 26 -29 42 -27 38 3
-4 26 -10 31 -27 20z"/>
<path d="M311 946 c-23 -24 -23 -24 -2 -31 19 -6 61 9 61 21 0 3 -3 3 -7 1
-10 -6 -34 19 -26 27 4 3 4 6 1 6 -2 0 -15 -11 -27 -24z"/>
<path d="M666 960 c-1 -3 -1 -20 -1 -39 0 -32 3 -34 38 -36 20 -2 40 2 44 8 4
6 1 7 -8 3 -8 -4 -6 -1 3 7 14 11 15 16 5 27 -10 10 -9 11 2 5 11 -6 11 -4 3
10 -6 13 -22 19 -47 20 -20 0 -37 -2 -39 -5z"/>
<path d="M947 964 c-3 -3 -3 -13 0 -22 4 -10 2 -13 -5 -8 -15 9 -16 -37 -3
-63 19 -34 89 -3 86 37 -2 25 -41 67 -50 53 -3 -6 -11 -11 -16 -11 -6 0 -7 5
-4 10 7 11 2 14 -8 4z"/>
<path d="M534 910 c0 -20 4 -26 20 -25 14 1 20 9 20 25 0 16 -6 24 -20 25 -16
1 -20 -5 -20 -25z"/>
<path d="M3775 890 c-3 -5 1 -10 10 -10 9 0 13 5 10 10 -3 6 -8 10 -10 10 -2
0 -7 -4 -10 -10z"/>
<path d="M3817 874 c-10 -11 3 -24 23 -24 13 0 17 5 14 15 -6 15 -26 20 -37 9z"/>
<path d="M565 860 c-9 -15 11 -20 29 -7 16 12 16 13 -3 14 -11 1 -23 -2 -26
-7z"/>
<path d="M1390 865 c5 -24 -1 -36 -17 -33 -10 2 -17 -2 -16 -8 1 -7 -7 -20
-19 -30 -12 -11 -19 -14 -15 -9 3 6 -3 11 -13 11 -14 0 -16 -3 -8 -13 6 -8 6
-13 1 -13 -5 0 -10 -7 -10 -15 0 -8 5 -15 10 -15 5 0 4 -6 -2 -14 -9 -11 -6
-13 13 -11 14 2 29 6 34 9 5 3 19 -6 32 -19 19 -20 26 -22 43 -14 10 6 17 7
14 2 -3 -5 3 -9 13 -9 10 0 16 5 13 11 -2 6 9 24 24 40 15 16 22 25 15 21 -11
-7 -12 -4 -3 12 7 14 8 23 1 27 -15 9 -12 27 3 19 7 -4 8 -3 4 2 -5 5 -16 9
-25 9 -10 0 -16 7 -16 17 1 10 -2 15 -8 12 -5 -3 -16 0 -25 8 -12 9 -15 9 -9
1 4 -7 3 -13 -1 -13 -5 0 -15 6 -22 13 -7 6 -12 8 -11 2z"/>
<path d="M143 823 c-9 -22 4 -40 28 -38 33 2 33 48 0 50 -12 1 -25 -4 -28 -12z"/>
<path d="M474 824 c-10 -8 -13 -13 -6 -9 6 3 12 2 12 -2 0 -5 -6 -15 -12 -22
-7 -7 -8 -12 -3 -11 26 5 37 -1 31 -17 -5 -15 -4 -15 9 1 17 22 17 22 19 -19
1 -23 7 -30 21 -30 11 0 25 4 32 8 7 5 18 5 24 1 8 -4 9 -3 5 5 -4 6 -2 18 4
26 10 12 10 19 -1 32 -12 14 -12 15 -1 9 11 -7 12 -4 4 11 -13 24 -44 23 -73
-3 l-22 -19 13 24 c8 16 8 21 1 16 -7 -4 -18 -2 -25 4 -9 8 -18 6 -32 -5z"/>
<path d="M3970 830 c-8 -5 -18 -6 -22 -4 -4 3 -8 3 -8 0 0 -3 9 -10 19 -15 14
-8 22 -7 30 3 14 17 1 28 -19 16z"/>
<path d="M4225 831 c-3 -5 -1 -12 5 -16 5 -3 10 1 10 9 0 18 -6 21 -15 7z"/>
<path d="M83 780 c-1 -11 2 -22 6 -24 4 -3 7 4 6 14 -2 27 -10 33 -12 10z"/>
<path d="M394 792 c8 -14 -22 -44 -36 -36 -7 4 -8 2 -4 -5 4 -6 11 -9 16 -6 4
3 10 -3 13 -14 7 -27 50 -21 52 9 1 15 -5 24 -16 27 -11 3 -17 9 -14 13 3 5 0
12 -6 16 -7 4 -9 3 -5 -4z"/>
<path d="M829 772 c-5 -13 -13 -21 -17 -18 -10 6 -9 -25 2 -42 4 -6 4 -17 0
-24 -4 -6 -3 -9 2 -6 12 8 35 -17 26 -28 -4 -4 -1 -4 6 0 6 4 18 4 24 0 21
-13 46 -12 41 2 -4 12 30 38 38 29 2 -2 4 16 5 40 0 24 -3 42 -8 39 -11 -7
-10 10 2 24 7 9 7 9 -2 2 -14 -12 -31 -13 -24 -2 3 5 -16 8 -41 8 -38 -1 -47
-5 -54 -24z"/>
<path d="M1220 785 c-20 -24 -8 -58 23 -66 15 -4 25 -4 22 1 -3 5 1 15 10 23
13 13 13 17 0 27 -8 7 -13 15 -11 19 9 13 -33 9 -44 -4z"/>
<path d="M2133 773 c-6 -12 -7 -21 -2 -17 5 3 9 1 9 -4 0 -12 57 -10 57 2 0 6
2 17 4 25 3 10 -5 15 -26 16 -24 2 -34 -4 -42 -22z"/>
<path d="M4013 786 c-3 -5 -1 -6 5 -2 15 9 16 -6 2 -20 -7 -7 -4 -10 12 -9 29
2 35 41 6 41 -11 0 -22 -5 -25 -10z"/>
<path d="M1513 738 c-16 -18 -27 -61 -13 -53 11 7 41 -31 33 -41 -5 -5 7 4 25
20 17 17 32 36 32 43 0 9 5 11 13 7 6 -4 1 4 -12 17 -30 29 -56 31 -78 7z"/>
<path d="M1767 716 c4 -5 0 -7 -10 -3 -12 4 -14 2 -10 -10 5 -12 3 -14 -8 -8
-8 4 -1 -6 15 -23 30 -32 43 -41 31 -22 -8 13 8 13 21 0 7 -7 11 -6 12 5 7 57
1 71 -29 71 -16 0 -25 -4 -22 -10z"/>
<path d="M4052 718 c-16 -16 -15 -40 4 -64 8 -10 13 -13 9 -6 -7 14 7 16 21 3
6 -6 9 6 9 34 0 28 -3 41 -9 35 -13 -13 -29 -13 -21 0 8 14 2 13 -13 -2z"/>
<path d="M2599 698 c-1 -2 -2 -18 -4 -35 -2 -29 1 -33 22 -33 16 0 22 -4 17
-12 -4 -7 4 -3 16 9 22 21 37 68 18 57 -4 -3 -8 -1 -8 3 0 8 -58 18 -61 11z"/>
<path d="M3691 690 c-22 -13 -21 -47 1 -45 10 1 24 7 30 13 17 17 -11 45 -31
32z"/>
<path d="M4153 685 c0 -7 9 -12 19 -11 10 1 18 6 18 11 0 6 -8 10 -18 11 -10
1 -19 -4 -19 -11z"/>
<path d="M3945 661 c-3 -5 -2 -12 3 -15 5 -3 9 1 9 9 0 17 -3 19 -12 6z"/>
<path d="M4332 657 c-9 -11 -5 -13 18 -13 23 0 27 2 18 13 -6 7 -14 13 -18 13
-4 0 -12 -6 -18 -13z"/>
<path d="M325 649 c-4 -6 -12 -8 -19 -6 -7 3 -11 -8 -11 -27 0 -39 20 -41 56
-7 13 13 18 21 12 17 -15 -9 -17 5 -3 22 7 9 7 9 -2 2 -7 -5 -16 -10 -21 -10
-4 0 -5 5 -2 10 3 6 4 10 1 10 -3 0 -8 -5 -11 -11z"/>
<path d="M534 639 c0 -10 4 -15 9 -12 4 2 14 0 21 -6 10 -8 12 -5 11 12 -2 27
-41 34 -41 6z"/>
<path d="M3314 646 c-8 -21 16 -40 30 -26 7 7 4 16 -7 27 -15 15 -17 15 -23
-1z"/>
<path d="M3590 640 c-6 -11 -4 -24 5 -37 8 -11 11 -24 7 -29 -4 -5 1 -2 10 5
9 7 23 9 29 5 8 -4 9 -3 5 5 -4 6 -3 17 3 24 13 17 -2 40 -29 42 -11 1 -25 -6
-30 -15z"/>
<path d="M4150 640 c-20 -37 15 -56 41 -22 7 9 9 14 5 10 -11 -10 -38 11 -30
23 3 5 3 9 0 9 -3 0 -10 -9 -16 -20z"/>
<path d="M5095 628 c-11 -12 -14 -17 -6 -13 11 6 11 3 -2 -15 -11 -16 -13 -28
-7 -40 5 -10 7 -20 5 -24 -3 -3 -2 -4 2 -1 3 3 12 0 20 -6 11 -9 13 1 13 55 0
36 -1 66 -2 65 -2 0 -12 -10 -23 -21z"/>
<path d="M2049 625 c-7 -1 -3 -48 4 -52 6 -4 7 -1 2 8 -4 8 1 5 12 -6 11 -11
18 -24 15 -30 -3 -5 1 -4 9 3 16 15 33 16 23 0 -4 -6 -3 -8 2 -5 6 3 10 23 9
44 0 37 -1 38 -38 38 -20 0 -37 0 -38 0z"/>
<path d="M1043 585 c0 -8 4 -12 9 -9 5 3 6 10 3 15 -9 13 -12 11 -12 -6z"/>
<path d="M1353 577 c-3 -6 -1 -7 5 -3 16 9 15 -7 0 -22 -9 -9 -6 -13 11 -20
12 -4 22 -11 22 -15 -1 -4 1 -7 4 -7 3 0 4 3 3 6 -2 4 8 11 21 16 l25 9 -22
21 c-23 23 -59 31 -69 15z"/>
<path d="M4037 529 c-9 -9 -13 -20 -10 -23 3 -3 0 -14 -8 -23 -13 -16 -12 -17
4 -4 9 7 17 9 17 4 0 -5 13 -9 28 -9 24 0 28 4 28 26 0 36 -37 55 -59 29z"/>
<path d="M1187 523 c-10 -21 -1 -48 15 -45 21 3 44 -33 26 -44 -7 -5 -8 -3 -3
6 5 8 4 11 -3 6 -6 -3 -9 -23 -8 -43 2 -33 5 -37 26 -37 20 0 25 4 24 26 0 24
2 25 20 16 l21 -11 -20 20 c-11 11 -24 18 -29 15 -5 -3 -5 1 -1 9 18 28 12 45
-13 44 -14 0 -27 6 -30 14 -3 8 0 11 7 7 6 -4 11 -5 11 -2 0 9 -39 26 -43 19z"/>
<path d="M2070 520 c0 -6 -6 -8 -12 -4 -7 4 -2 -5 12 -21 14 -16 19 -25 12
-20 -11 6 -12 3 -3 -12 6 -11 8 -22 6 -25 -3 -3 5 -4 17 -3 34 2 46 30 28 63
-16 27 -60 44 -60 22z"/>
<path d="M4216 512 c-3 -5 1 -17 8 -27 12 -17 13 -17 11 3 -2 26 -11 37 -19
24z"/>
<path d="M1909 483 c-1 -2 -2 -9 -3 -15 0 -7 -8 -13 -16 -13 -16 0 -21 -33 -7
-52 5 -7 6 -17 2 -22 -3 -6 0 -8 8 -5 7 2 26 -8 42 -23 16 -15 25 -23 22 -16
-5 8 0 11 12 10 15 -1 17 -5 10 -13 -7 -9 -5 -21 8 -40 12 -19 13 -25 4 -20
-10 7 -12 5 -7 -3 5 -7 14 -10 22 -7 17 6 28 -10 17 -26 -11 -18 -10 -104 2
-106 42 -4 68 -19 59 -35 -5 -8 -3 -8 7 0 17 17 32 17 23 1 -4 -7 4 -3 18 10
13 12 28 19 33 15 4 -5 5 -3 2 3 -4 6 2 19 13 29 14 13 17 22 10 34 -5 10 -5
23 0 31 14 23 -27 54 -72 55 -21 0 -43 6 -50 13 -9 9 -9 12 0 12 7 0 12 -6 12
-12 0 -9 3 -8 9 2 12 18 5 31 -14 23 -10 -3 -13 -1 -10 9 7 17 -16 39 -43 41
-13 1 -19 8 -18 22 1 12 8 19 16 17 12 -3 13 -1 3 9 -7 7 -13 17 -13 22 0 4 6
5 13 1 6 -4 0 6 -16 22 -20 21 -37 29 -62 29 -19 0 -36 -1 -36 -2z"/>
<path d="M3616 473 c9 -7 21 -10 26 -7 14 9 -1 23 -23 21 -19 -1 -19 -2 -3
-14z"/>
<path d="M3959 453 c-1 -5 -1 -12 0 -17 1 -4 -4 -16 -11 -25 -11 -14 -11 -14
3 -3 9 7 23 11 30 10 8 -2 15 7 17 20 3 17 -1 22 -17 22 -12 0 -22 -3 -22 -7z"/>
<path d="M1329 445 c-1 0 -3 -9 -4 -21 -2 -15 3 -20 18 -19 26 2 31 41 5 41
-10 0 -19 0 -19 -1z"/>
<path d="M3705 421 c-3 -5 -2 -12 3 -15 5 -3 9 1 9 9 0 17 -3 19 -12 6z"/>
<path d="M3189 415 c-8 -3 -2 -48 8 -56 19 -16 48 8 32 27 -6 7 -8 17 -6 21 4
6 -24 13 -34 8z"/>
<path d="M3355 411 c-9 -15 14 -24 29 -12 7 6 16 9 19 6 4 -3 5 -2 2 2 -9 11
-43 14 -50 4z"/>
<path d="M2485 386 c-24 -25 -25 -48 -2 -70 9 -10 17 -15 17 -11 0 3 10 1 21
-6 12 -6 19 -7 16 -2 -8 12 29 44 39 35 5 -4 2 1 -5 10 -7 9 -11 21 -8 25 5
11 -25 38 -43 39 -8 0 -24 -9 -35 -20z"/>
<path d="M802 361 c2 -24 5 -28 19 -21 9 5 18 7 21 5 3 -3 4 5 3 18 -1 14 -9
23 -23 25 -19 3 -22 -1 -20 -27z"/>
<path d="M320 365 c-6 -8 -9 -19 -5 -25 8 -14 42 -13 51 2 4 7 3 8 -4 4 -7 -4
-12 -1 -12 8 0 22 -16 28 -30 11z"/>
<path d="M2910 361 c-11 -21 -5 -28 24 -27 13 1 20 9 21 24 1 16 -2 19 -9 12
-13 -13 -29 -13 -21 0 3 6 4 10 1 10 -3 0 -10 -9 -16 -19z"/>
<path d="M1544 345 c-19 -14 -18 -15 3 -21 13 -3 20 -11 16 -17 -3 -6 -1 -7 5
-3 11 7 11 40 1 51 -3 2 -14 -2 -25 -10z"/>
<path d="M664 336 c-3 -7 -3 -26 -1 -42 4 -35 33 -38 65 -8 l22 21 -25 23
c-21 20 -27 21 -42 9 -11 -9 -14 -10 -9 -1 4 6 5 12 1 12 -3 0 -8 -6 -11 -14z"/>
<path d="M4156 343 c-8 -9 3 -23 19 -23 20 0 25 26 5 27 -10 1 -21 -1 -24 -4z"/>
<path d="M4702 341 c2 -22 -4 -32 -15 -28 -8 3 -14 -1 -14 -9 0 -7 4 -11 9 -8
13 8 10 -10 -4 -25 -10 -11 -10 -13 0 -7 6 4 12 3 12 -1 0 -5 -6 -15 -12 -22
-7 -8 -8 -12 -3 -9 6 3 19 -4 30 -15 11 -11 14 -16 6 -12 -9 5 -12 4 -8 -2 11
-17 52 -8 49 11 -2 14 7 20 29 18 3 -1 5 9 4 21 -1 12 2 30 6 39 6 10 5 19 -2
23 -6 4 -8 12 -6 19 3 7 -11 11 -39 12 -23 0 -43 -2 -42 -5z"/>
<path d="M2552 313 c-6 -3 -9 -9 -6 -14 3 -6 1 -15 -4 -22 -8 -9 -2 -12 25
-12 30 0 37 4 38 22 1 12 -2 20 -7 17 -5 -3 -14 -1 -21 4 -7 5 -18 7 -25 5z"/>
<path d="M1253 274 c7 -12 -16 -38 -24 -29 -3 2 -5 -9 -4 -25 0 -15 2 -28 5
-28 21 2 31 -4 27 -14 -2 -7 -12 -13 -23 -13 -15 0 -20 -8 -22 -40 -2 -22 0
-37 4 -33 3 4 15 3 25 -2 12 -7 20 -6 24 1 4 6 14 8 24 4 13 -5 14 -4 4 6 -7
7 -13 17 -13 22 0 4 6 5 13 1 6 -4 2 4 -11 18 l-22 24 24 23 c14 13 24 31 23
42 -1 10 -3 16 -6 13 -2 -2 -16 6 -29 18 -14 13 -22 18 -19 12z"/>
<path d="M1359 278 c-9 -33 -3 -44 21 -44 20 0 26 4 25 20 -1 13 -10 22 -23
24 -12 2 -22 2 -23 0z"/>
<path d="M3371 266 c12 -13 12 -27 0 -23 -5 1 -8 -2 -7 -8 0 -5 4 -9 9 -7 10
3 9 -12 -3 -24 -6 -6 3 -9 26 -9 25 1 42 9 62 30 15 16 23 26 18 22 -10 -8
-38 12 -31 22 2 4 -16 7 -40 7 -28 -1 -40 -5 -34 -10z"/>
<path d="M114 218 c1 -17 8 -23 24 -24 l23 -1 -22 23 c-27 29 -27 29 -25 2z"/>
<path d="M4002 217 l-22 -23 30 -2 c24 -2 30 2 30 17 0 30 -15 33 -38 8z"/>
<path d="M3015 211 c-3 -5 -2 -12 3 -15 12 -7 47 -1 47 9 0 12 -43 16 -50 6z"/>
<path d="M4086 211 c-4 -5 -2 -12 3 -15 5 -4 12 -2 15 3 4 5 2 12 -3 15 -5 4
-12 2 -15 -3z"/>
<path d="M2330 175 c-18 -19 -37 -32 -42 -29 -5 3 -16 0 -25 -8 -14 -11 -16
-11 -9 0 7 11 4 12 -13 3 -11 -7 -21 -14 -21 -17 0 -3 5 -2 10 1 14 9 12 -8
-2 -24 -9 -10 -9 -12 -1 -7 11 6 28 -10 28 -28 0 -15 46 -14 52 0 4 11 9 11
26 0 28 -18 53 -13 83 15 19 18 21 25 13 42 -9 15 -8 18 3 12 7 -5 0 6 -16 23
-17 18 -36 32 -43 32 -8 0 -11 5 -8 10 12 19 -1 10 -35 -25z"/>
<path d="M3822 201 c-5 -3 -9 -14 -9 -24 0 -26 40 -18 42 9 1 20 -14 27 -33
15z"/>
<path d="M900 185 c-7 -8 -17 -12 -24 -8 -6 3 -4 0 4 -8 8 -8 20 -20 26 -26 8
-10 16 -6 35 15 13 15 20 24 15 19 -5 -4 -17 0 -26 8 -15 14 -18 14 -30 0z"/>
<path d="M563 174 c7 -11 -20 -42 -32 -36 -6 2 -7 -3 -10 -34 -1 -14 -3 -15
-18 -3 -17 13 -17 12 -2 -6 8 -11 21 -33 27 -48 8 -19 18 -27 27 -23 8 3 21
-2 30 -10 11 -12 15 -12 15 -2 0 10 3 9 10 -2 9 -13 12 -13 20 2 6 9 18 25 27
34 18 18 25 52 11 60 -4 3 -8 10 -8 15 0 6 5 7 10 4 6 -3 10 -4 10 -1 0 3 -10
10 -21 17 -17 9 -20 8 -14 -2 6 -8 4 -10 -4 -5 -7 5 -10 14 -8 21 4 8 -3 11
-21 9 -15 -1 -33 3 -41 9 -10 8 -13 8 -8 1z"/>
<path d="M1420 170 c-8 -5 -17 -7 -21 -4 -4 2 -6 -4 -5 -14 0 -10 -6 -17 -16
-17 -9 0 -20 -4 -24 -8 -12 -11 -26 -8 -18 5 4 6 3 8 -2 5 -5 -3 -9 -23 -9
-44 1 -37 2 -38 40 -38 33 0 39 3 40 23 1 13 -2 25 -7 28 -17 11 -7 21 19 20
20 -1 29 5 31 18 5 24 -9 38 -28 26z"/>
<path d="M2463 165 c-4 -5 -2 -6 3 -2 4 4 13 -9 19 -29 12 -45 44 -52 75 -19
l20 22 -21 19 c-23 20 -86 27 -96 9z"/>
<path d="M3707 174 c-3 -4 -1 -16 5 -28 9 -18 9 -19 -3 -10 -28 23 -47 13 -44
-23 1 -19 8 -39 15 -46 10 -10 10 -7 0 13 l-13 25 26 -23 c22 -21 25 -22 24
-5 -1 12 4 17 17 16 13 -1 15 2 7 10 -15 15 -14 30 2 21 6 -4 2 3 -11 15 -12
12 -20 26 -17 32 7 10 2 12 -8 3z"/>
<path d="M4844 171 c5 -7 -4 -16 -26 -23 -18 -7 -36 -12 -39 -11 -6 2 -9 -14
-10 -49 0 -10 -6 -18 -12 -18 -8 0 -8 -3 -2 -8 16 -12 41 -47 28 -38 -8 4 -11
2 -8 -6 8 -20 99 -22 118 -3 9 9 19 15 22 15 4 -1 10 2 13 6 4 4 1 4 -5 0 -14
-8 -18 10 -5 18 27 16 -27 102 -56 91 -10 -3 -12 0 -9 10 4 8 1 17 -5 21 -7 4
-8 3 -4 -5z"/>
<path d="M1905 129 c8 -11 -18 -26 -42 -24 -18 1 -20 -1 -12 -11 6 -7 8 -17 5
-23 -3 -5 1 -12 10 -15 10 -4 14 -12 10 -24 -5 -11 2 -8 20 10 29 29 41 95 17
95 -7 0 -10 -4 -8 -8z"/>
<path d="M3288 116 c-14 -33 -5 -54 24 -52 20 1 23 6 23 38 0 24 -3 34 -9 28
-13 -13 -29 -13 -21 0 3 6 4 10 0 10 -3 0 -10 -11 -17 -24z"/>
<path d="M936 103 c-10 -11 -7 -31 7 -36 7 -3 13 3 14 14 2 20 -10 33 -21 22z"/>
<path d="M355 61 c2 -9 4 -20 4 -26 2 -13 21 16 21 31 0 6 -6 11 -14 11 -7 0
-12 -7 -11 -16z"/>
<path d="M1573 65 c-10 -7 -15 -17 -11 -20 4 -4 3 -16 -3 -26 -9 -18 -5 -19
63 -19 64 0 75 3 86 21 8 12 9 18 3 15 -10 -6 -26 11 -26 29 0 15 -92 15 -112
0z"/>
<path d="M3881 66 c-5 -6 -8 -21 -6 -31 2 -11 4 -23 4 -27 1 -12 71 -9 72 2 5
45 2 55 -15 52 -10 -2 -16 1 -13 5 9 14 -30 13 -42 -1z"/>
<path d="M1773 49 c-1 -12 3 -17 9 -13 7 4 8 2 4 -5 -4 -6 -10 -9 -14 -7 -4 2
-13 -2 -20 -10 -11 -12 -6 -14 33 -14 41 0 45 2 36 18 -5 9 -18 25 -28 34 -18
16 -19 16 -20 -3z"/>
<path d="M3531 51 c-6 -10 -7 -21 -4 -25 11 -10 41 -7 49 7 4 6 4 9 -1 5 -10
-10 -37 11 -29 23 3 5 3 9 0 9 -3 0 -10 -8 -15 -19z"/>
<path d="M2544 23 c23 -27 22 -27 29 -8 4 8 1 17 -5 21 -7 4 -8 3 -4 -4 10
-16 -6 -15 -24 1 -8 6 -6 2 4 -10z"/>
<path d="M3079 18 c-9 -16 -5 -18 38 -18 44 1 46 2 25 13 -12 7 -20 15 -18 18
3 3 -4 5 -15 5 -11 0 -25 -8 -30 -18z"/>
</g>
</svg>
